<?xml version="1.0" encoding="utf-8" standalone="no"?>
<!DOCTYPE svg PUBLIC "-//W3C//DTD SVG 1.1//EN"
  "http://www.w3.org/Graphics/SVG/1.1/DTD/svg11.dtd">
<svg xmlns:xlink="http://www.w3.org/1999/xlink" width="504pt" height="360pt" viewBox="0 0 504 360" xmlns="http://www.w3.org/2000/svg" version="1.1">
 <metadata>
  <rdf:RDF xmlns:dc="http://purl.org/dc/elements/1.1/" xmlns:cc="http://creativecommons.org/ns#" xmlns:rdf="http://www.w3.org/1999/02/22-rdf-syntax-ns#">
   <cc:Work>
    <dc:type rdf:resource="http://purl.org/dc/dcmitype/StillImage"/>
    <dc:date>2022-05-31T10:43:52.066149</dc:date>
    <dc:format>image/svg+xml</dc:format>
    <dc:creator>
     <cc:Agent>
      <dc:title>Matplotlib v3.5.2, https://matplotlib.org/</dc:title>
     </cc:Agent>
    </dc:creator>
   </cc:Work>
  </rdf:RDF>
 </metadata>
 <defs>
  <style type="text/css">*{stroke-linejoin: round; stroke-linecap: butt}</style>
 </defs>
 <g id="figure_1">
  <g id="patch_1">
   <path d="M 0 360 
L 504 360 
L 504 0 
L 0 0 
L 0 360 
z
" style="fill: none"/>
  </g>
  <g id="axes_1">
   <g id="patch_2">
    <path d="M 63 315 
L 453.6 315 
L 453.6 43.2 
L 63 43.2 
z
" style="fill: #ffffff"/>
   </g>
   <g id="matplotlib.axis_1">
    <g id="xtick_1">
     <g id="line2d_1">
      <defs>
       <path id="m09e1780169" d="M 0 0 
L 0 3.5 
" style="stroke: #000000; stroke-width: 0.8"/>
      </defs>
      <g>
       <use xlink:href="#m09e1780169" x="80.754545" y="315" style="stroke: #000000; stroke-width: 0.8"/>
      </g>
     </g>
     <g id="text_1">
      <!-- 0 -->
      <g transform="translate(77.573295 329.598437)scale(0.1 -0.1)">
       <defs>
        <path id="DejaVuSans-30" d="M 2034 4250 
Q 1547 4250 1301 3770 
Q 1056 3291 1056 2328 
Q 1056 1369 1301 889 
Q 1547 409 2034 409 
Q 2525 409 2770 889 
Q 3016 1369 3016 2328 
Q 3016 3291 2770 3770 
Q 2525 4250 2034 4250 
z
M 2034 4750 
Q 2819 4750 3233 4129 
Q 3647 3509 3647 2328 
Q 3647 1150 3233 529 
Q 2819 -91 2034 -91 
Q 1250 -91 836 529 
Q 422 1150 422 2328 
Q 422 3509 836 4129 
Q 1250 4750 2034 4750 
z
" transform="scale(0.015625)"/>
       </defs>
       <use xlink:href="#DejaVuSans-30"/>
      </g>
     </g>
    </g>
    <g id="xtick_2">
     <g id="line2d_2">
      <g>
       <use xlink:href="#m09e1780169" x="152.490083" y="315" style="stroke: #000000; stroke-width: 0.8"/>
      </g>
     </g>
     <g id="text_2">
      <!-- 20 -->
      <g transform="translate(146.127583 329.598437)scale(0.1 -0.1)">
       <defs>
        <path id="DejaVuSans-32" d="M 1228 531 
L 3431 531 
L 3431 0 
L 469 0 
L 469 531 
Q 828 903 1448 1529 
Q 2069 2156 2228 2338 
Q 2531 2678 2651 2914 
Q 2772 3150 2772 3378 
Q 2772 3750 2511 3984 
Q 2250 4219 1831 4219 
Q 1534 4219 1204 4116 
Q 875 4013 500 3803 
L 500 4441 
Q 881 4594 1212 4672 
Q 1544 4750 1819 4750 
Q 2544 4750 2975 4387 
Q 3406 4025 3406 3419 
Q 3406 3131 3298 2873 
Q 3191 2616 2906 2266 
Q 2828 2175 2409 1742 
Q 1991 1309 1228 531 
z
" transform="scale(0.015625)"/>
       </defs>
       <use xlink:href="#DejaVuSans-32"/>
       <use xlink:href="#DejaVuSans-30" x="63.623047"/>
      </g>
     </g>
    </g>
    <g id="xtick_3">
     <g id="line2d_3">
      <g>
       <use xlink:href="#m09e1780169" x="224.22562" y="315" style="stroke: #000000; stroke-width: 0.8"/>
      </g>
     </g>
     <g id="text_3">
      <!-- 40 -->
      <g transform="translate(217.86312 329.598437)scale(0.1 -0.1)">
       <defs>
        <path id="DejaVuSans-34" d="M 2419 4116 
L 825 1625 
L 2419 1625 
L 2419 4116 
z
M 2253 4666 
L 3047 4666 
L 3047 1625 
L 3713 1625 
L 3713 1100 
L 3047 1100 
L 3047 0 
L 2419 0 
L 2419 1100 
L 313 1100 
L 313 1709 
L 2253 4666 
z
" transform="scale(0.015625)"/>
       </defs>
       <use xlink:href="#DejaVuSans-34"/>
       <use xlink:href="#DejaVuSans-30" x="63.623047"/>
      </g>
     </g>
    </g>
    <g id="xtick_4">
     <g id="line2d_4">
      <g>
       <use xlink:href="#m09e1780169" x="295.961157" y="315" style="stroke: #000000; stroke-width: 0.8"/>
      </g>
     </g>
     <g id="text_4">
      <!-- 60 -->
      <g transform="translate(289.598657 329.598437)scale(0.1 -0.1)">
       <defs>
        <path id="DejaVuSans-36" d="M 2113 2584 
Q 1688 2584 1439 2293 
Q 1191 2003 1191 1497 
Q 1191 994 1439 701 
Q 1688 409 2113 409 
Q 2538 409 2786 701 
Q 3034 994 3034 1497 
Q 3034 2003 2786 2293 
Q 2538 2584 2113 2584 
z
M 3366 4563 
L 3366 3988 
Q 3128 4100 2886 4159 
Q 2644 4219 2406 4219 
Q 1781 4219 1451 3797 
Q 1122 3375 1075 2522 
Q 1259 2794 1537 2939 
Q 1816 3084 2150 3084 
Q 2853 3084 3261 2657 
Q 3669 2231 3669 1497 
Q 3669 778 3244 343 
Q 2819 -91 2113 -91 
Q 1303 -91 875 529 
Q 447 1150 447 2328 
Q 447 3434 972 4092 
Q 1497 4750 2381 4750 
Q 2619 4750 2861 4703 
Q 3103 4656 3366 4563 
z
" transform="scale(0.015625)"/>
       </defs>
       <use xlink:href="#DejaVuSans-36"/>
       <use xlink:href="#DejaVuSans-30" x="63.623047"/>
      </g>
     </g>
    </g>
    <g id="xtick_5">
     <g id="line2d_5">
      <g>
       <use xlink:href="#m09e1780169" x="367.696694" y="315" style="stroke: #000000; stroke-width: 0.8"/>
      </g>
     </g>
     <g id="text_5">
      <!-- 80 -->
      <g transform="translate(361.334194 329.598437)scale(0.1 -0.1)">
       <defs>
        <path id="DejaVuSans-38" d="M 2034 2216 
Q 1584 2216 1326 1975 
Q 1069 1734 1069 1313 
Q 1069 891 1326 650 
Q 1584 409 2034 409 
Q 2484 409 2743 651 
Q 3003 894 3003 1313 
Q 3003 1734 2745 1975 
Q 2488 2216 2034 2216 
z
M 1403 2484 
Q 997 2584 770 2862 
Q 544 3141 544 3541 
Q 544 4100 942 4425 
Q 1341 4750 2034 4750 
Q 2731 4750 3128 4425 
Q 3525 4100 3525 3541 
Q 3525 3141 3298 2862 
Q 3072 2584 2669 2484 
Q 3125 2378 3379 2068 
Q 3634 1759 3634 1313 
Q 3634 634 3220 271 
Q 2806 -91 2034 -91 
Q 1263 -91 848 271 
Q 434 634 434 1313 
Q 434 1759 690 2068 
Q 947 2378 1403 2484 
z
M 1172 3481 
Q 1172 3119 1398 2916 
Q 1625 2713 2034 2713 
Q 2441 2713 2670 2916 
Q 2900 3119 2900 3481 
Q 2900 3844 2670 4047 
Q 2441 4250 2034 4250 
Q 1625 4250 1398 4047 
Q 1172 3844 1172 3481 
z
" transform="scale(0.015625)"/>
       </defs>
       <use xlink:href="#DejaVuSans-38"/>
       <use xlink:href="#DejaVuSans-30" x="63.623047"/>
      </g>
     </g>
    </g>
    <g id="xtick_6">
     <g id="line2d_6">
      <g>
       <use xlink:href="#m09e1780169" x="439.432231" y="315" style="stroke: #000000; stroke-width: 0.8"/>
      </g>
     </g>
     <g id="text_6">
      <!-- 100 -->
      <g transform="translate(429.888481 329.598437)scale(0.1 -0.1)">
       <defs>
        <path id="DejaVuSans-31" d="M 794 531 
L 1825 531 
L 1825 4091 
L 703 3866 
L 703 4441 
L 1819 4666 
L 2450 4666 
L 2450 531 
L 3481 531 
L 3481 0 
L 794 0 
L 794 531 
z
" transform="scale(0.015625)"/>
       </defs>
       <use xlink:href="#DejaVuSans-31"/>
       <use xlink:href="#DejaVuSans-30" x="63.623047"/>
       <use xlink:href="#DejaVuSans-30" x="127.246094"/>
      </g>
     </g>
    </g>
   </g>
   <g id="matplotlib.axis_2">
    <g id="text_7">
     <!--    $u_r$          -->
     <g transform="translate(31.65 177.020312)scale(0.1 -0.1)">
      <defs>
       <path id="DejaVuSans-20" transform="scale(0.015625)"/>
       <path id="DejaVuSans-Oblique-75" d="M 428 1388 
L 838 3500 
L 1416 3500 
L 1006 1409 
Q 975 1256 961 1147 
Q 947 1038 947 966 
Q 947 700 1109 554 
Q 1272 409 1569 409 
Q 2031 409 2368 721 
Q 2706 1034 2809 1563 
L 3194 3500 
L 3769 3500 
L 3091 0 
L 2516 0 
L 2631 550 
Q 2388 244 2052 76 
Q 1716 -91 1338 -91 
Q 878 -91 622 161 
Q 366 413 366 863 
Q 366 956 381 1097 
Q 397 1238 428 1388 
z
" transform="scale(0.015625)"/>
       <path id="DejaVuSans-Oblique-72" d="M 2853 2969 
Q 2766 3016 2653 3041 
Q 2541 3066 2413 3066 
Q 1953 3066 1609 2717 
Q 1266 2369 1153 1784 
L 800 0 
L 225 0 
L 909 3500 
L 1484 3500 
L 1375 2956 
Q 1603 3259 1920 3421 
Q 2238 3584 2597 3584 
Q 2691 3584 2781 3573 
Q 2872 3563 2963 3538 
L 2853 2969 
z
" transform="scale(0.015625)"/>
      </defs>
      <use xlink:href="#DejaVuSans-20" transform="translate(0 0.3125)"/>
      <use xlink:href="#DejaVuSans-20" transform="translate(31.787109 0.3125)"/>
      <use xlink:href="#DejaVuSans-20" transform="translate(63.574219 0.3125)"/>
      <use xlink:href="#DejaVuSans-Oblique-75" transform="translate(95.361328 0.3125)"/>
      <use xlink:href="#DejaVuSans-Oblique-72" transform="translate(158.740234 -16.09375)scale(0.7)"/>
      <use xlink:href="#DejaVuSans-20" transform="translate(190.253906 0.3125)"/>
      <use xlink:href="#DejaVuSans-20" transform="translate(222.041016 0.3125)"/>
      <use xlink:href="#DejaVuSans-20" transform="translate(253.828125 0.3125)"/>
      <use xlink:href="#DejaVuSans-20" transform="translate(285.615234 0.3125)"/>
      <use xlink:href="#DejaVuSans-20" transform="translate(317.402344 0.3125)"/>
      <use xlink:href="#DejaVuSans-20" transform="translate(349.189453 0.3125)"/>
      <use xlink:href="#DejaVuSans-20" transform="translate(380.976562 0.3125)"/>
      <use xlink:href="#DejaVuSans-20" transform="translate(412.763672 0.3125)"/>
      <use xlink:href="#DejaVuSans-20" transform="translate(444.550781 0.3125)"/>
     </g>
    </g>
   </g>
   <g id="line2d_7">
    <path d="M 80.754545 220.784882 
L 84.341322 220.839785 
L 87.928099 220.893679 
L 91.514876 220.946556 
L 95.101653 220.998411 
L 98.68843 221.049237 
L 102.275207 221.099028 
L 105.861983 221.147779 
L 109.44876 221.195483 
L 113.035537 221.242134 
L 116.622314 221.287727 
L 120.209091 221.332257 
L 123.795868 221.375718 
L 127.382645 221.418105 
L 130.969421 221.459412 
L 134.556198 221.499635 
L 138.142975 221.538769 
L 141.729752 221.576808 
L 145.316529 221.613749 
L 148.903306 221.649586 
L 152.490083 221.684316 
L 156.07686 221.717934 
L 159.663636 221.750436 
L 163.250413 221.781818 
L 166.83719 221.812077 
L 170.423967 221.841207 
L 174.010744 221.869206 
L 177.597521 221.896071 
L 181.184298 221.921797 
L 184.771074 221.946383 
L 188.357851 221.969824 
L 191.944628 221.992118 
L 195.531405 222.013262 
L 199.118182 222.033254 
L 202.704959 222.052091 
L 206.291736 222.06977 
L 209.878512 222.08629 
L 213.465289 222.101648 
L 217.052066 222.115843 
L 220.638843 222.128872 
L 224.22562 222.140735 
L 227.812397 222.151429 
L 231.399174 222.160954 
L 234.98595 222.169308 
L 238.572727 222.17649 
L 242.159504 222.182499 
L 245.746281 222.187335 
L 249.333058 222.190997 
L 252.919835 222.193484 
L 256.506612 222.194796 
L 260.093388 222.194934 
L 263.680165 222.193896 
L 267.266942 222.191684 
L 270.853719 222.188298 
L 274.440496 222.183737 
L 278.027273 222.178003 
L 281.61405 222.171096 
L 285.200826 222.163017 
L 288.787603 222.153767 
L 292.37438 222.143348 
L 295.961157 222.131761 
L 299.547934 222.119007 
L 303.134711 222.105087 
L 306.721488 222.090005 
L 310.308264 222.07376 
L 313.895041 222.056357 
L 317.481818 222.037796 
L 321.068595 222.01808 
L 324.655372 221.997212 
L 328.242149 221.975194 
L 331.828926 221.952029 
L 335.415702 221.92772 
L 339.002479 221.90227 
L 342.589256 221.875682 
L 346.176033 221.84796 
L 349.76281 221.819106 
L 353.349587 221.789125 
L 356.936364 221.75802 
L 360.52314 221.725796 
L 364.109917 221.692456 
L 367.696694 221.658004 
L 371.283471 221.622444 
L 374.870248 221.585782 
L 378.457025 221.54802 
L 382.043802 221.509166 
L 385.630579 221.469222 
L 389.217355 221.428194 
L 392.804132 221.386086 
L 396.390909 221.342905 
L 399.977686 221.298655 
L 403.564463 221.253342 
L 407.15124 221.206971 
L 410.738017 221.159548 
L 414.324793 221.111078 
L 417.91157 221.061568 
L 421.498347 221.011024 
L 425.085124 220.959451 
L 428.671901 220.906856 
L 432.258678 220.853245 
L 435.845455 220.798624 
" clip-path="url(#p9df29c964f)" style="fill: none; stroke: #0000ff; stroke-width: 1.7; stroke-linecap: square"/>
   </g>
   <g id="line2d_8">
    <path d="M 80.754545 250.718393 
L 84.341322 249.417027 
L 87.928099 248.107108 
L 91.514876 246.788776 
L 95.101653 245.462173 
L 98.68843 244.127443 
L 102.275207 242.784731 
L 105.861983 241.434185 
L 109.44876 240.075957 
L 113.035537 238.710196 
L 116.622314 237.337058 
L 120.209091 235.956698 
L 123.795868 234.569275 
L 127.382645 233.174946 
L 130.969421 231.773875 
L 134.556198 230.366224 
L 138.142975 228.952158 
L 141.729752 227.531844 
L 145.316529 226.10545 
L 148.903306 224.673146 
L 152.490083 223.235104 
L 156.07686 221.791496 
L 159.663636 220.342498 
L 163.250413 218.888285 
L 166.83719 217.429034 
L 170.423967 215.964925 
L 174.010744 214.496138 
L 177.597521 213.022853 
L 181.184298 211.545254 
L 184.771074 210.063524 
L 188.357851 208.577848 
L 191.944628 207.088412 
L 195.531405 205.595403 
L 199.118182 204.09901 
L 202.704959 202.599421 
L 206.291736 201.096825 
L 209.878512 199.591414 
L 213.465289 198.083379 
L 217.052066 196.572912 
L 220.638843 195.060205 
L 224.22562 193.545453 
L 227.812397 192.02885 
L 231.399174 190.510589 
L 234.98595 188.990865 
L 238.572727 187.469875 
L 242.159504 185.947814 
L 245.746281 184.424878 
L 249.333058 182.901263 
L 252.919835 181.377166 
L 256.506612 179.852784 
L 260.093388 178.328312 
L 263.680165 176.803948 
L 267.266942 175.279889 
L 270.853719 173.756331 
L 274.440496 172.233471 
L 278.027273 170.711505 
L 281.61405 169.19063 
L 285.200826 167.67104 
L 288.787603 166.152932 
L 292.37438 164.6365 
L 295.961157 163.12194 
L 299.547934 161.609444 
L 303.134711 160.099208 
L 306.721488 158.591423 
L 310.308264 157.086282 
L 313.895041 155.583977 
L 317.481818 154.084698 
L 321.068595 152.588635 
L 324.655372 151.095977 
L 328.242149 149.606913 
L 331.828926 148.12163 
L 335.415702 146.640313 
L 339.002479 145.163148 
L 342.589256 143.690319 
L 346.176033 142.222009 
L 349.76281 140.758399 
L 353.349587 139.299669 
L 356.936364 137.845999 
L 360.52314 136.397567 
L 364.109917 134.954548 
L 367.696694 133.517117 
L 371.283471 132.085448 
L 374.870248 130.659712 
L 378.457025 129.24008 
L 382.043802 127.82672 
L 385.630579 126.4198 
L 389.217355 125.019484 
L 392.804132 123.625936 
L 396.390909 122.239318 
L 399.977686 120.859789 
L 403.564463 119.487509 
L 407.15124 118.122632 
L 410.738017 116.765314 
L 414.324793 115.415706 
L 417.91157 114.073959 
L 421.498347 112.740221 
L 425.085124 111.414639 
L 428.671901 110.097357 
L 432.258678 108.788516 
L 435.845455 107.488257 
" clip-path="url(#p9df29c964f)" style="fill: none; stroke: #0012f6; stroke-width: 1.7; stroke-linecap: square"/>
   </g>
   <g id="line2d_9">
    <path d="M 80.754545 270.080929 
L 84.341322 264.858764 
L 87.928099 259.716794 
L 91.514876 254.656529 
L 95.101653 249.679459 
L 98.68843 244.787054 
L 102.275207 239.980764 
L 105.861983 235.262017 
L 109.44876 230.632221 
L 113.035537 226.092759 
L 116.622314 221.644994 
L 120.209091 217.29026 
L 123.795868 213.029873 
L 127.382645 208.865119 
L 130.969421 204.79726 
L 134.556198 200.827533 
L 138.142975 196.957145 
L 141.729752 193.187278 
L 145.316529 189.519085 
L 148.903306 185.95369 
L 152.490083 182.492189 
L 156.07686 179.135647 
L 159.663636 175.885099 
L 163.250413 172.74155 
L 166.83719 169.705971 
L 170.423967 166.779305 
L 174.010744 163.962461 
L 177.597521 161.256314 
L 181.184298 158.661707 
L 184.771074 156.17945 
L 188.357851 153.810318 
L 191.944628 151.555052 
L 195.531405 149.414357 
L 199.118182 147.388906 
L 202.704959 145.479332 
L 206.291736 143.686236 
L 209.878512 142.010182 
L 213.465289 140.451695 
L 217.052066 139.011267 
L 220.638843 137.689351 
L 224.22562 136.486362 
L 227.812397 135.40268 
L 231.399174 134.438646 
L 234.98595 133.594563 
L 238.572727 132.870696 
L 242.159504 132.267273 
L 245.746281 131.784482 
L 249.333058 131.422475 
L 252.919835 131.181365 
L 256.506612 131.061224 
L 260.093388 131.062089 
L 263.680165 131.183957 
L 267.266942 131.426786 
L 270.853719 131.790495 
L 274.440496 132.274968 
L 278.027273 132.880047 
L 281.61405 133.605537 
L 285.200826 134.451204 
L 288.787603 135.416778 
L 292.37438 136.501949 
L 295.961157 137.70637 
L 299.547934 139.029657 
L 303.134711 140.471387 
L 306.721488 142.031101 
L 310.308264 143.708303 
L 313.895041 145.50246 
L 317.481818 147.413004 
L 321.068595 149.439328 
L 324.655372 151.580791 
L 328.242149 153.836716 
L 331.828926 156.206393 
L 335.415702 158.689073 
L 339.002479 161.283976 
L 342.589256 163.990287 
L 346.176033 166.807158 
L 349.76281 169.733705 
L 353.349587 172.769016 
L 356.936364 175.912143 
L 360.52314 179.162107 
L 364.109917 182.517898 
L 367.696694 185.978477 
L 371.283471 189.542771 
L 374.870248 193.20968 
L 378.457025 196.978075 
L 382.043802 200.846796 
L 385.630579 204.814657 
L 389.217355 208.880444 
L 392.804132 213.042916 
L 396.390909 217.300805 
L 399.977686 221.652819 
L 403.564463 226.097639 
L 407.15124 230.633923 
L 410.738017 235.260304 
L 414.324793 239.975394 
L 417.91157 244.77778 
L 421.498347 249.666029 
L 425.085124 254.638686 
L 428.671901 259.694275 
L 432.258678 264.831302 
L 435.845455 270.048253 
" clip-path="url(#p9df29c964f)" style="fill: none; stroke: #0024ed; stroke-width: 1.7; stroke-linecap: square"/>
   </g>
   <g id="line2d_10">
    <path d="M 80.754545 283.722071 
L 84.341322 271.60021 
L 87.928099 260.027399 
L 91.514876 248.998534 
L 95.101653 238.508168 
L 98.68843 228.550523 
L 102.275207 219.119486 
L 105.861983 210.208612 
L 109.44876 201.81113 
L 113.035537 193.919946 
L 116.622314 186.527641 
L 120.209091 179.626484 
L 123.795868 173.208425 
L 127.382645 167.26511 
L 130.969421 161.787876 
L 134.556198 156.767762 
L 138.142975 152.195512 
L 141.729752 148.06158 
L 145.316529 144.356135 
L 148.903306 141.069068 
L 152.490083 138.189996 
L 156.07686 135.708271 
L 159.663636 133.612982 
L 163.250413 131.892968 
L 166.83719 130.536818 
L 170.423967 129.532883 
L 174.010744 128.869279 
L 177.597521 128.5339 
L 181.184298 128.514421 
L 184.771074 128.798306 
L 188.357851 129.372819 
L 191.944628 130.225031 
L 195.531405 131.341826 
L 199.118182 132.709913 
L 202.704959 134.315832 
L 206.291736 136.145964 
L 209.878512 138.186541 
L 213.465289 140.423653 
L 217.052066 142.843259 
L 220.638843 145.431194 
L 224.22562 148.173183 
L 227.812397 151.054845 
L 231.399174 154.061706 
L 234.98595 157.179209 
L 238.572727 160.392723 
L 242.159504 163.68755 
L 245.746281 167.048941 
L 249.333058 170.462102 
L 252.919835 173.912203 
L 256.506612 177.384392 
L 260.093388 180.863802 
L 263.680165 184.335562 
L 267.266942 187.784808 
L 270.853719 191.196691 
L 274.440496 194.556388 
L 278.027273 197.849115 
L 281.61405 201.060132 
L 285.200826 204.174756 
L 288.787603 207.178372 
L 292.37438 210.056438 
L 295.961157 212.794502 
L 299.547934 215.378204 
L 303.134711 217.793294 
L 306.721488 220.025632 
L 310.308264 222.061206 
L 313.895041 223.886137 
L 317.481818 225.486689 
L 321.068595 226.849277 
L 324.655372 227.960479 
L 328.242149 228.807043 
L 331.828926 229.375894 
L 335.415702 229.654145 
L 339.002479 229.629104 
L 342.589256 229.288283 
L 346.176033 228.619407 
L 349.76281 227.610418 
L 353.349587 226.249487 
L 356.936364 224.525018 
L 360.52314 222.425659 
L 364.109917 219.940303 
L 367.696694 217.058102 
L 371.283471 213.768468 
L 374.870248 210.061083 
L 378.457025 205.925903 
L 382.043802 201.353163 
L 385.630579 196.333386 
L 389.217355 190.857386 
L 392.804132 184.916272 
L 396.390909 178.501457 
L 399.977686 171.60466 
L 403.564463 164.217908 
L 407.15124 156.333545 
L 410.738017 147.944234 
L 414.324793 139.042959 
L 417.91157 129.623031 
L 421.498347 119.678088 
L 425.085124 109.202102 
L 428.671901 98.189376 
L 432.258678 86.634554 
L 435.845455 74.532615 
" clip-path="url(#p9df29c964f)" style="fill: none; stroke: #0036e4; stroke-width: 1.7; stroke-linecap: square"/>
   </g>
   <g id="line2d_11">
    <path d="M 80.754545 293.123481 
L 84.341322 270.992312 
L 87.928099 250.743069 
L 91.514876 232.304195 
L 95.101653 215.604016 
L 98.68843 200.570818 
L 102.275207 187.13293 
L 105.861983 175.218804 
L 109.44876 164.757095 
L 113.035537 155.676743 
L 116.622314 147.907056 
L 120.209091 141.377785 
L 123.795868 136.019211 
L 127.382645 131.762221 
L 130.969421 128.538388 
L 134.556198 126.280054 
L 138.142975 124.920402 
L 141.729752 124.393539 
L 145.316529 124.63457 
L 148.903306 125.579677 
L 152.490083 127.166188 
L 156.07686 129.332656 
L 159.663636 132.018928 
L 163.250413 135.16622 
L 166.83719 138.71718 
L 170.423967 142.615961 
L 174.010744 146.808285 
L 177.597521 151.24151 
L 181.184298 155.864688 
L 184.771074 160.628631 
L 188.357851 165.485966 
L 191.944628 170.391192 
L 195.531405 175.300737 
L 199.118182 180.173006 
L 202.704959 184.968436 
L 206.291736 189.64954 
L 209.878512 194.180951 
L 213.465289 198.529471 
L 217.052066 202.664101 
L 220.638843 206.556088 
L 224.22562 210.178954 
L 227.812397 213.508528 
L 231.399174 216.52298 
L 234.98595 219.20284 
L 238.572727 221.531029 
L 242.159504 223.492872 
L 245.746281 225.076123 
L 249.333058 226.270975 
L 252.919835 227.070072 
L 256.506612 227.468521 
L 260.093388 227.463893 
L 263.680165 227.056229 
L 267.266942 226.248041 
L 270.853719 225.044304 
L 274.440496 223.452453 
L 278.027273 221.482374 
L 281.61405 219.146391 
L 285.200826 216.459249 
L 288.787603 213.438098 
L 292.37438 210.102473 
L 295.961157 206.474266 
L 299.547934 202.577704 
L 303.134711 198.439313 
L 306.721488 194.087894 
L 310.308264 189.55448 
L 313.895041 184.872302 
L 317.481818 180.07675 
L 321.068595 175.205326 
L 324.655372 170.2976 
L 328.242149 165.395165 
L 331.828926 160.541582 
L 335.415702 155.782329 
L 339.002479 151.164748 
L 342.589256 146.737987 
L 346.176033 142.55294 
L 349.76281 138.662186 
L 353.349587 135.119925 
L 356.936364 131.981919 
L 360.52314 129.305417 
L 364.109917 127.149091 
L 367.696694 125.57297 
L 371.283471 124.638361 
L 374.870248 124.407782 
L 378.457025 124.944888 
L 382.043802 126.314391 
L 385.630579 128.581992 
L 389.217355 131.814297 
L 392.804132 136.078742 
L 396.390909 141.443517 
L 399.977686 147.977482 
L 403.564463 155.750088 
L 407.15124 164.831301 
L 410.738017 175.291517 
L 414.324793 187.201483 
L 417.91157 200.632215 
L 421.498347 215.65492 
L 425.085124 232.340909 
L 428.671901 250.761524 
L 432.258678 270.988051 
L 435.845455 293.091644 
" clip-path="url(#p9df29c964f)" style="fill: none; stroke: #0049db; stroke-width: 1.7; stroke-linecap: square"/>
   </g>
   <g id="line2d_12">
    <path d="M 80.754545 59.036734 
L 84.341322 94.022063 
L 87.928099 124.308061 
L 91.514876 150.232698 
L 95.101653 172.124007 
L 98.68843 190.299825 
L 102.275207 205.067556 
L 105.861983 216.723946 
L 109.44876 225.554893 
L 113.035537 231.835266 
L 116.622314 235.828748 
L 120.209091 237.787711 
L 123.795868 237.9531 
L 127.382645 236.554345 
L 130.969421 233.809299 
L 134.556198 229.924195 
L 138.142975 225.093625 
L 141.729752 219.500544 
L 145.316529 213.316299 
L 148.903306 206.700679 
L 152.490083 199.801985 
L 156.07686 192.757126 
L 159.663636 185.691741 
L 163.250413 178.720335 
L 166.83719 171.946445 
L 170.423967 165.462823 
L 174.010744 159.351643 
L 177.597521 153.68473 
L 181.184298 148.523804 
L 184.771074 143.920752 
L 188.357851 139.917914 
L 191.944628 136.548392 
L 195.531405 133.836372 
L 199.118182 131.797473 
L 202.704959 130.439102 
L 206.291736 129.760836 
L 209.878512 129.754812 
L 213.465289 130.406136 
L 217.052066 131.693304 
L 220.638843 133.588639 
L 224.22562 136.058741 
L 227.812397 139.064939 
L 231.399174 142.563768 
L 234.98595 146.507447 
L 238.572727 150.844365 
L 242.159504 155.519579 
L 245.746281 160.475317 
L 249.333058 165.651486 
L 252.919835 170.986183 
L 256.506612 176.416216 
L 260.093388 181.877619 
L 263.680165 187.306175 
L 267.266942 192.637937 
L 270.853719 197.809749 
L 274.440496 202.759763 
L 278.027273 207.427957 
L 281.61405 211.756647 
L 285.200826 215.690995 
L 288.787603 219.17951 
L 292.37438 222.174543 
L 295.961157 224.632776 
L 299.547934 226.515696 
L 303.134711 227.790069 
L 306.721488 228.428393 
L 310.308264 228.409348 
L 313.895041 227.718226 
L 317.481818 226.347352 
L 321.068595 224.296492 
L 324.655372 221.57324 
L 328.242149 218.193398 
L 331.828926 214.181328 
L 335.415702 209.570298 
L 339.002479 204.402802 
L 342.589256 198.730866 
L 346.176033 192.616331 
L 349.76281 186.131123 
L 353.349587 179.35749 
L 356.936364 172.388236 
L 360.52314 165.326916 
L 364.109917 158.288022 
L 367.696694 151.397141 
L 371.283471 144.791093 
L 374.870248 138.618047 
L 378.457025 133.037609 
L 382.043802 128.220898 
L 385.630579 124.350588 
L 389.217355 121.620932 
L 392.804132 120.237763 
L 396.390909 120.418474 
L 399.977686 122.391967 
L 403.564463 126.398591 
L 407.15124 132.690046 
L 410.738017 141.529274 
L 414.324793 153.190319 
L 417.91157 167.958171 
L 421.498347 186.12859 
L 425.085124 208.0079 
L 428.671901 233.91277 
L 432.258678 264.169976 
L 435.845455 299.116131 
" clip-path="url(#p9df29c964f)" style="fill: none; stroke: #005bd2; stroke-width: 1.7; stroke-linecap: square"/>
   </g>
   <g id="line2d_13">
    <path d="M 80.754545 56.016604 
L 84.341322 106.273715 
L 87.928099 146.804086 
L 91.514876 178.699601 
L 95.101653 202.984337 
L 98.68843 220.615735 
L 102.275207 232.485904 
L 105.861983 239.423027 
L 109.44876 242.192883 
L 113.035537 241.500466 
L 116.622314 237.991707 
L 120.209091 232.255288 
L 123.795868 224.824532 
L 127.382645 216.179391 
L 130.969421 206.748488 
L 134.556198 196.911239 
L 138.142975 187.00003 
L 141.729752 177.302446 
L 145.316529 168.063552 
L 148.903306 159.488202 
L 152.490083 151.74339 
L 156.07686 144.960623 
L 159.663636 139.238301 
L 163.250413 134.644123 
L 166.83719 131.217479 
L 170.423967 128.971848 
L 174.010744 127.897172 
L 177.597521 127.962222 
L 181.184298 129.116924 
L 184.771074 131.294659 
L 188.357851 134.414516 
L 191.944628 138.383496 
L 195.531405 143.098665 
L 199.118182 148.449236 
L 202.704959 154.31859 
L 206.291736 160.586215 
L 209.878512 167.129572 
L 213.465289 173.825864 
L 217.052066 180.553722 
L 220.638843 187.194786 
L 224.22562 193.635188 
L 227.812397 199.766925 
L 231.399174 205.489124 
L 234.98595 210.709189 
L 238.572727 215.343832 
L 242.159504 219.319974 
L 245.746281 222.575538 
L 249.333058 225.060094 
L 252.919835 226.735392 
L 256.506612 227.575757 
L 260.093388 227.56835 
L 263.680165 226.713301 
L 267.266942 225.023707 
L 270.853719 222.525498 
L 274.440496 219.257165 
L 278.027273 215.269367 
L 281.61405 210.624394 
L 285.200826 205.395513 
L 288.787603 199.666179 
L 292.37438 193.529128 
L 295.961157 187.085341 
L 299.547934 180.442898 
L 303.134711 173.715707 
L 306.721488 167.022136 
L 310.308264 160.483524 
L 313.895041 154.222597 
L 317.481818 148.361791 
L 321.068595 143.021472 
L 324.655372 138.318079 
L 328.242149 134.362186 
L 331.828926 131.256479 
L 335.415702 129.093681 
L 339.002479 127.954398 
L 342.589256 127.904926 
L 346.176033 128.994995 
L 349.76281 131.255481 
L 353.349587 134.696081 
L 356.936364 139.302959 
L 360.52314 145.036376 
L 364.109917 151.828304 
L 367.696694 159.580035 
L 371.283471 168.159797 
L 374.870248 177.400374 
L 378.457025 187.096748 
L 382.043802 197.003765 
L 385.630579 206.833829 
L 389.217355 216.25464 
L 392.804132 224.886978 
L 396.390909 232.30254 
L 399.977686 238.021836 
L 403.564463 241.512156 
L 407.15124 242.185603 
L 410.738017 239.397221 
L 414.324793 232.443192 
L 417.91157 220.559138 
L 421.498347 202.918515 
L 425.085124 178.631114 
L 428.671901 146.741666 
L 432.258678 106.228568 
L 435.845455 56.002717 
" clip-path="url(#p9df29c964f)" style="fill: none; stroke: #006dc8; stroke-width: 1.7; stroke-linecap: square"/>
   </g>
   <g id="line2d_14">
    <path d="M 80.754545 55.554545 
L 84.341322 122.797253 
L 87.928099 172.396317 
L 91.514876 207.155343 
L 95.101653 229.601859 
L 98.68843 242.001545 
L 102.275207 246.372526 
L 105.861983 244.499657 
L 109.44876 237.948762 
L 113.035537 228.080779 
L 116.622314 216.065776 
L 120.209091 202.896787 
L 123.795868 189.403425 
L 127.382645 176.265245 
L 130.969421 164.024803 
L 134.556198 153.100383 
L 138.142975 143.798363 
L 141.729752 136.325175 
L 145.316529 130.798832 
L 148.903306 127.260009 
L 152.490083 125.682626 
L 156.07686 125.98393 
L 159.663636 128.034054 
L 163.250413 131.665018 
L 166.83719 136.679177 
L 170.423967 142.857089 
L 174.010744 149.964802 
L 177.597521 157.760545 
L 181.184298 166.000824 
L 184.771074 174.445912 
L 188.357851 182.864755 
L 191.944628 191.039266 
L 195.531405 198.768044 
L 199.118182 205.869506 
L 202.704959 212.184455 
L 206.291736 217.578094 
L 209.878512 221.941502 
L 213.465289 225.192596 
L 217.052066 227.276593 
L 220.638843 228.166002 
L 224.22562 227.860174 
L 227.812397 226.384427 
L 231.399174 223.788788 
L 234.98595 220.146375 
L 238.572727 215.55146 
L 242.159504 210.117239 
L 245.746281 203.973351 
L 249.333058 197.263179 
L 252.919835 190.14098 
L 256.506612 182.768866 
L 260.093388 175.313692 
L 263.680165 167.943886 
L 267.266942 160.826249 
L 270.853719 154.122791 
L 274.440496 147.987614 
L 278.027273 142.563903 
L 281.61405 137.981055 
L 285.200826 134.351985 
L 288.787603 131.770653 
L 292.37438 130.309839 
L 295.961157 130.019214 
L 299.547934 130.923727 
L 303.134711 133.022357 
L 306.721488 136.287246 
L 310.308264 140.663258 
L 313.895041 146.067976 
L 317.481818 152.392179 
L 321.068595 159.500806 
L 324.655372 167.234442 
L 328.242149 175.411341 
L 331.828926 183.829997 
L 335.415702 192.272287 
L 339.002479 200.507184 
L 342.589256 208.295068 
L 346.176033 215.392625 
L 349.76281 221.558336 
L 353.349587 226.558578 
L 356.936364 230.174305 
L 360.52314 232.208335 
L 364.109917 232.493202 
L 367.696694 230.8996 
L 371.283471 227.345369 
L 374.870248 221.805037 
L 378.457025 214.319882 
L 382.043802 205.008496 
L 385.630579 194.077834 
L 389.217355 181.83472 
L 392.804132 168.69777 
L 396.390909 155.209722 
L 399.977686 142.050125 
L 403.564463 130.048356 
L 407.15124 120.19693 
L 410.738017 113.66507 
L 414.324793 111.812484 
L 417.91157 116.203321 
L 421.498347 128.620258 
L 425.085124 151.078668 
L 428.671901 185.840844 
L 432.258678 235.430202 
L 435.845455 302.645455 
" clip-path="url(#p9df29c964f)" style="fill: none; stroke: #0080bf; stroke-width: 1.7; stroke-linecap: square"/>
   </g>
   <g id="line2d_15">
    <path d="M 80.754545 57.36399 
L 84.341322 142.554746 
L 87.928099 198.680982 
L 91.514876 231.911145 
L 95.101653 247.552649 
L 98.68843 250.126923 
L 102.275207 243.441549 
L 105.861983 230.659376 
L 109.44876 214.364491 
L 113.035537 196.624956 
L 116.622314 179.052233 
L 120.209091 162.857232 
L 123.795868 148.902958 
L 127.382645 137.753702 
L 130.969421 129.720793 
L 134.556198 124.904909 
L 138.142975 123.234963 
L 141.729752 124.503616 
L 145.316529 128.399459 
L 148.903306 134.535949 
L 152.490083 142.477159 
L 156.07686 151.760458 
L 159.663636 161.916219 
L 163.250413 172.484676 
L 166.83719 183.030054 
L 170.423967 193.152129 
L 174.010744 202.495342 
L 177.597521 210.755644 
L 181.184298 217.685214 
L 184.771074 223.09524 
L 188.357851 226.856908 
L 191.944628 228.900803 
L 195.531405 229.214867 
L 199.118182 227.841118 
L 202.704959 224.871292 
L 206.291736 220.441585 
L 209.878512 214.726678 
L 213.465289 207.933194 
L 217.052066 200.292774 
L 220.638843 192.054913 
L 224.22562 183.479716 
L 227.812397 174.830719 
L 231.399174 166.367903 
L 234.98595 158.341033 
L 238.572727 150.983435 
L 242.159504 144.506317 
L 245.746281 139.093726 
L 249.333058 134.898219 
L 252.919835 132.037318 
L 256.506612 130.590813 
L 260.093388 130.59893 
L 263.680165 132.061423 
L 267.266942 134.937576 
L 270.853719 139.147136 
L 274.440496 144.572145 
L 278.027273 151.059661 
L 281.61405 158.425311 
L 285.200826 166.457626 
L 288.787603 174.923097 
L 292.37438 183.571859 
L 295.961157 192.143918 
L 299.547934 200.375817 
L 303.134711 208.007617 
L 306.721488 214.790075 
L 310.308264 220.491888 
L 313.895041 224.906841 
L 317.481818 227.860728 
L 321.068595 229.217877 
L 324.655372 228.887115 
L 328.242149 226.827005 
L 331.828926 223.050191 
L 335.415702 217.626657 
L 339.002479 210.685747 
L 342.589256 202.416745 
L 346.176033 193.067866 
L 349.76281 182.943457 
L 353.349587 172.399255 
L 356.936364 161.835534 
L 360.52314 151.687967 
L 364.109917 142.416068 
L 367.696694 134.489052 
L 371.283471 128.368977 
L 374.870248 124.491045 
L 378.457025 123.24094 
L 382.043802 124.929097 
L 385.630579 129.761805 
L 389.217355 137.809062 
L 392.804132 148.969128 
L 396.390909 162.9297 
L 399.977686 179.125689 
L 403.564463 196.693573 
L 407.15124 214.422312 
L 410.738017 230.700845 
L 414.324793 243.462194 
L 417.91157 250.124209 
L 421.498347 247.527032 
L 425.085124 231.867342 
L 428.671901 198.629489 
L 432.258678 142.513611 
L 435.845455 57.360893 
" clip-path="url(#p9df29c964f)" style="fill: none; stroke: #0092b6; stroke-width: 1.7; stroke-linecap: square"/>
   </g>
   <g id="line2d_16">
    <path d="M 80.754545 297.082304 
L 84.341322 193.907076 
L 87.928099 135.055897 
L 91.514876 108.471866 
L 95.101653 104.332792 
L 98.68843 114.770905 
L 102.275207 133.613704 
L 105.861983 156.145519 
L 109.44876 178.8893 
L 113.035537 199.408059 
L 116.622314 216.125309 
L 120.209091 228.163814 
L 123.795868 235.201867 
L 127.382645 237.346296 
L 130.969421 235.021325 
L 134.556198 228.872397 
L 138.142975 219.68405 
L 141.729752 208.310865 
L 145.316529 195.620542 
L 148.903306 182.448112 
L 152.490083 169.56033 
L 156.07686 157.629245 
L 159.663636 147.213995 
L 163.250413 138.749883 
L 166.83719 132.543813 
L 170.423967 128.775148 
L 174.010744 127.501191 
L 177.597521 128.666399 
L 181.184298 132.114583 
L 184.771074 137.603339 
L 188.357851 144.820031 
L 191.944628 153.398684 
L 195.531405 162.937206 
L 199.118182 173.014429 
L 202.704959 183.206478 
L 206.291736 193.10211 
L 209.878512 202.316627 
L 213.465289 210.504125 
L 217.052066 217.367834 
L 220.638843 222.66839 
L 224.22562 226.229937 
L 227.812397 227.944003 
L 231.399174 227.771149 
L 234.98595 225.740465 
L 238.572727 221.946963 
L 242.159504 216.547063 
L 245.746281 209.752306 
L 249.333058 201.82153 
L 252.919835 193.051738 
L 256.506612 183.767932 
L 260.093388 174.312187 
L 263.680165 165.032271 
L 267.266942 156.270112 
L 270.853719 148.350424 
L 274.440496 141.56979 
L 278.027273 136.18651 
L 281.61405 132.411489 
L 285.200826 130.400434 
L 288.787603 130.247593 
L 292.37438 131.981266 
L 295.961157 135.561235 
L 299.547934 140.878278 
L 303.134711 147.755855 
L 306.721488 155.954011 
L 310.308264 165.175504 
L 313.895041 175.074093 
L 317.481818 185.26491 
L 321.068595 195.336702 
L 324.655372 204.865775 
L 328.242149 213.43131 
L 331.828926 220.631745 
L 335.415702 226.101792 
L 339.002479 229.529642 
L 342.589256 230.673824 
L 346.176033 229.379163 
L 349.76281 225.591155 
L 353.349587 219.368131 
L 356.936364 210.890421 
L 360.52314 200.465762 
L 364.109917 188.530126 
L 367.696694 175.643084 
L 371.283471 162.476839 
L 374.870248 149.797977 
L 378.457025 138.441013 
L 382.043802 129.27276 
L 385.630579 123.146546 
L 389.217355 120.845324 
L 392.804132 123.012676 
L 396.390909 130.070779 
L 399.977686 142.12436 
L 403.564463 158.849753 
L 407.15124 179.36813 
L 410.738017 202.102091 
L 414.324793 224.614776 
L 417.91157 243.430761 
L 421.498347 253.838034 
L 425.085124 249.670416 
L 428.671901 223.069854 
L 432.258678 164.228133 
L 435.845455 61.10754 
" clip-path="url(#p9df29c964f)" style="fill: none; stroke: #00a4ad; stroke-width: 1.7; stroke-linecap: square"/>
   </g>
   <g id="line2d_17">
    <path d="M 80.754545 291.748207 
L 84.341322 171.359831 
L 87.928099 114.535382 
L 91.514876 99.755736 
L 95.101653 110.583869 
L 98.68843 134.81399 
L 102.275207 163.717143 
L 105.861983 191.377086 
L 109.44876 214.110552 
L 113.035537 229.965779 
L 116.622314 238.293269 
L 120.209091 239.382765 
L 123.795868 234.160589 
L 127.382645 223.941564 
L 130.969421 210.229865 
L 134.556198 194.563349 
L 138.142975 178.396343 
L 141.729752 163.015654 
L 145.316529 149.485251 
L 148.903306 138.615141 
L 152.490083 130.95036 
L 156.07686 126.776141 
L 159.663636 126.135787 
L 163.250413 128.858121 
L 166.83719 134.591611 
L 170.423967 142.842422 
L 174.010744 153.014568 
L 177.597521 164.44985 
L 181.184298 176.466237 
L 184.771074 188.393175 
L 188.357851 199.60304 
L 191.944628 209.53771 
L 195.531405 217.729866 
L 199.118182 223.818799 
L 202.704959 227.560406 
L 206.291736 228.831857 
L 209.878512 227.630783 
L 213.465289 224.069692 
L 217.052066 218.366138 
L 220.638843 210.829027 
L 224.22562 201.84209 
L 227.812397 191.845054 
L 231.399174 181.313246 
L 234.98595 170.736785 
L 238.572727 160.599469 
L 242.159504 151.358849 
L 245.746281 143.427524 
L 249.333058 137.156706 
L 252.919835 132.822308 
L 256.506612 130.614229 
L 260.093388 130.628906 
L 263.680165 132.865637 
L 267.266942 137.226597 
L 270.853719 143.520661 
L 274.440496 151.470747 
L 278.027273 160.724755 
L 281.61405 170.869407 
L 285.200826 181.446785 
L 288.787603 191.972962 
L 292.37438 201.958121 
L 295.961157 210.927423 
L 299.547934 218.441995 
L 303.134711 224.119195 
L 306.721488 227.651392 
L 310.308264 228.822532 
L 313.895041 227.521597 
L 317.481818 223.752548 
L 321.068595 217.639716 
L 324.655372 209.428541 
L 328.242149 199.480846 
L 331.828926 188.264802 
L 335.415702 176.339027 
L 339.002479 164.331244 
L 342.589256 152.911609 
L 346.176033 142.761421 
L 349.76281 134.53764 
L 353.349587 128.834698 
L 356.936364 126.144479 
L 360.52314 126.816401 
L 364.109917 131.019414 
L 367.696694 138.707974 
L 371.283471 149.594877 
L 374.870248 163.133449 
L 378.457025 178.51259 
L 382.043802 194.667955 
L 385.630579 210.313215 
L 389.217355 223.995522 
L 392.804132 234.179425 
L 396.390909 239.364191 
L 399.977686 238.239229 
L 403.564463 229.882995 
L 407.15124 214.010567 
L 410.738017 191.275643 
L 414.324793 163.632626 
L 417.91157 134.764599 
L 421.498347 110.583181 
L 425.085124 99.806313 
L 428.671901 114.619747 
L 432.258678 171.428579 
L 435.845455 291.704288 
" clip-path="url(#p9df29c964f)" style="fill: none; stroke: #00b6a4; stroke-width: 1.7; stroke-linecap: square"/>
   </g>
   <g id="line2d_18">
    <path d="M 80.754545 285.122569 
L 84.341322 149.210447 
L 87.928099 99.738035 
L 91.514876 101.132907 
L 95.101653 128.202409 
L 98.68843 163.922399 
L 102.275207 197.565452 
L 105.861983 223.132543 
L 109.44876 238.05685 
L 113.035537 242.148234 
L 116.622314 236.749242 
L 120.209091 224.074892 
L 123.795868 206.711151 
L 127.382645 187.248192 
L 130.969421 168.026432 
L 134.556198 150.975279 
L 138.142975 137.528124 
L 141.729752 128.595492 
L 145.316529 124.583337 
L 148.903306 125.443755 
L 152.490083 130.747794 
L 156.07686 139.770494 
L 159.663636 151.580924 
L 163.250413 165.131586 
L 166.83719 179.342275 
L 170.423967 193.173078 
L 174.010744 205.687358 
L 177.597521 216.099889 
L 181.184298 223.811686 
L 184.771074 228.429933 
L 188.357851 229.77568 
L 191.944628 227.878408 
L 195.531405 222.959993 
L 199.118182 215.41049 
L 202.704959 205.755739 
L 206.291736 194.621959 
L 209.878512 182.695926 
L 213.465289 170.68519 
L 217.052066 159.280003 
L 220.638843 149.116852 
L 224.22562 140.747508 
L 227.812397 134.613188 
L 231.399174 131.024206 
L 234.98595 130.148959 
L 238.572727 132.006999 
L 242.159504 136.4724 
L 245.746281 143.281945 
L 249.333058 152.050968 
L 252.919835 162.293879 
L 256.506612 173.45017 
L 260.093388 184.912633 
L 263.680165 196.058663 
L 267.266942 206.281669 
L 270.853719 215.022261 
L 274.440496 221.796325 
L 278.027273 226.221266 
L 281.61405 228.03627 
L 285.200826 227.117653 
L 288.787603 223.487777 
L 292.37438 217.31704 
L 295.961157 208.918278 
L 299.547934 198.734283 
L 303.134711 187.31815 
L 306.721488 175.307232 
L 310.308264 163.391831 
L 313.895041 152.278905 
L 317.481818 142.654295 
L 321.068595 135.142074 
L 324.655372 130.266242 
L 328.242149 128.413685 
L 331.828926 129.80369 
L 335.415702 134.462705 
L 339.002479 142.208872 
L 342.589256 152.646795 
L 346.176033 165.175567 
L 349.76281 179.008438 
L 353.349587 193.208395 
L 356.936364 206.736175 
L 360.52314 218.512631 
L 364.109917 227.493054 
L 367.696694 232.749758 
L 371.283471 233.561846 
L 374.870248 229.504628 
L 378.457025 220.534847 
L 382.043802 207.062542 
L 385.630579 190.001416 
L 389.217355 170.786995 
L 392.804132 151.349034 
L 396.390909 134.02589 
L 399.977686 121.403196 
L 403.564463 116.060369 
L 407.15124 120.203638 
L 410.738017 135.165445 
L 414.324793 160.746052 
L 417.91157 194.37158 
L 421.498347 230.041713 
L 425.085124 257.038371 
L 428.671901 258.363067 
L 432.258678 208.873381 
L 435.845455 73.081444 
" clip-path="url(#p9df29c964f)" style="fill: none; stroke: #00c99b; stroke-width: 1.7; stroke-linecap: square"/>
   </g>
   <g id="line2d_19">
    <path d="M 80.754545 80.633465 
L 84.341322 229.756449 
L 87.928099 266.447444 
L 91.514876 245.939842 
L 95.101653 203.993613 
L 98.68843 162.014375 
L 102.275207 131.160033 
L 105.861983 115.593575 
L 109.44876 114.999781 
L 113.035537 126.486112 
L 116.622314 145.97163 
L 120.209091 169.159521 
L 123.795868 192.171705 
L 127.382645 211.919231 
L 130.969421 226.272911 
L 134.556198 234.089209 
L 138.142975 235.12403 
L 141.729752 229.888463 
L 145.316529 219.466295 
L 148.903306 205.319692 
L 152.490083 189.097516 
L 156.07686 172.465524 
L 159.663636 156.964865 
L 163.250413 143.899327 
L 166.83719 134.254511 
L 170.423967 128.662684 
L 174.010744 127.383289 
L 177.597521 130.322574 
L 181.184298 137.06937 
L 184.771074 146.955327 
L 188.357851 159.117231 
L 191.944628 172.573381 
L 195.531405 186.300359 
L 199.118182 199.30073 
L 202.704959 210.674435 
L 206.291736 219.664729 
L 209.878512 225.705823 
L 213.465289 228.450249 
L 217.052066 227.777022 
L 220.638843 223.796011 
L 224.22562 216.828723 
L 227.812397 207.380455 
L 231.399174 196.110294 
L 234.98595 183.774161 
L 238.572727 171.189789 
L 242.159504 159.174702 
L 245.746281 148.502782 
L 249.333058 139.853991 
L 252.919835 133.777514 
L 256.506612 130.655119 
L 260.093388 130.684149 
L 263.680165 133.862658 
L 267.266942 139.991002 
L 270.853719 148.680799 
L 274.440496 159.383206 
L 278.027273 171.414188 
L 281.61405 183.999579 
L 285.200826 196.320636 
L 288.787603 207.563579 
L 292.37438 216.969759 
L 295.961157 223.88656 
L 299.547934 227.810448 
L 303.134711 228.423912 
L 306.721488 225.622735 
L 310.308264 219.52931 
L 313.895041 210.498228 
L 317.481818 199.096174 
L 321.068595 186.081634 
L 324.655372 172.356969 
L 328.242149 158.92053 
L 331.828926 146.793792 
L 335.415702 136.955188 
L 339.002479 130.263562 
L 342.589256 127.386446 
L 346.176033 128.726549 
L 349.76281 134.374483 
L 353.349587 144.063203 
L 356.936364 157.158877 
L 360.52314 172.67122 
L 364.109917 189.294118 
L 367.696694 205.488915 
L 371.283471 219.590033 
L 374.870248 229.953095 
L 378.457025 235.122399 
L 382.043802 234.021815 
L 385.630579 226.148662 
L 389.217355 211.752999 
L 392.804132 191.987902 
L 396.390909 168.985446 
L 399.977686 145.83559 
L 403.564463 126.411296 
L 407.15124 115.000513 
L 410.738017 115.669731 
L 414.324793 131.293092 
L 417.91157 162.167564 
L 421.498347 204.117696 
L 425.085124 245.983381 
L 428.671901 266.388018 
L 432.258678 229.638439 
L 435.845455 80.641334 
" clip-path="url(#p9df29c964f)" style="fill: none; stroke: #00db92; stroke-width: 1.7; stroke-linecap: square"/>
   </g>
   <g id="line2d_20">
    <path d="M 80.754545 88.841919 
L 84.341322 248.244307 
L 87.928099 267.126157 
L 91.514876 226.65907 
L 95.101653 174.015068 
L 98.68843 133.212154 
L 102.275207 113.187205 
L 105.861983 113.820044 
L 109.44876 130.226843 
L 113.035537 155.705463 
L 116.622314 183.626361 
L 120.209091 208.531372 
L 123.795868 226.650779 
L 127.382645 235.998377 
L 130.969421 236.216576 
L 134.556198 228.273602 
L 138.142975 214.043895 
L 141.729752 195.929004 
L 145.316529 176.479451 
L 148.903306 158.097069 
L 152.490083 142.792729 
L 156.07686 132.031082 
L 159.663636 126.671761 
L 163.250413 126.953073 
L 166.83719 132.5205 
L 170.423967 142.564246 
L 174.010744 155.902393 
L 177.597521 171.137707 
L 181.184298 186.78869 
L 184.771074 201.441003 
L 188.357851 213.836252 
L 191.944628 222.976237 
L 195.531405 228.190459 
L 199.118182 229.15036 
L 202.704959 225.907722 
L 206.291736 218.827391 
L 209.878512 208.575339 
L 213.465289 196.04962 
L 217.052066 182.282281 
L 220.638843 168.385037 
L 224.22562 155.444321 
L 227.812397 144.440377 
L 231.399174 136.209562 
L 234.98595 131.331107 
L 238.572727 130.15425 
L 242.159504 132.729051 
L 245.746281 138.836558 
L 249.333058 147.992663 
L 252.919835 159.499588 
L 256.506612 172.477654 
L 260.093388 185.953465 
L 263.680165 198.912957 
L 267.266942 210.38257 
L 270.853719 219.485011 
L 274.440496 225.531595 
L 278.027273 228.039856 
L 281.61405 226.791561 
L 285.200826 221.85132 
L 288.787603 213.560729 
L 292.37438 202.519322 
L 295.961157 189.552228 
L 299.547934 175.650289 
L 303.134711 161.900212 
L 306.721488 149.408045 
L 310.308264 139.205975 
L 313.895041 132.190703 
L 317.481818 129.013361 
L 321.068595 130.048463 
L 324.655372 135.323284 
L 328.242149 144.523393 
L 331.828926 156.95943 
L 335.415702 171.630776 
L 339.002479 187.278544 
L 342.589256 202.489781 
L 346.176033 215.780216 
L 349.76281 225.764806 
L 353.349587 231.263175 
L 356.936364 231.465139 
L 360.52314 226.040801 
L 364.109917 215.222661 
L 367.696694 199.879945 
L 371.283471 181.480906 
L 374.870248 162.045253 
L 378.457025 143.968556 
L 382.043802 129.799219 
L 385.630579 121.936745 
L 389.217355 122.239124 
L 392.804132 131.656809 
L 396.390909 149.82371 
L 399.977686 174.750212 
L 403.564463 202.65229 
L 407.15124 228.072338 
L 410.738017 244.396324 
L 414.324793 244.937852 
L 417.91157 224.837988 
L 421.498347 184.009283 
L 425.085124 131.405832 
L 428.671901 91.043714 
L 432.258678 110.031252 
L 435.845455 269.380529 
" clip-path="url(#p9df29c964f)" style="fill: none; stroke: #00ed88; stroke-width: 1.7; stroke-linecap: square"/>
   </g>
   <g id="line2d_21">
    <path d="M 80.754545 97.177558 
L 84.341322 264.46828 
L 87.928099 260.274384 
L 91.514876 201.587571 
L 95.101653 144.745985 
L 98.68843 113.401328 
L 102.275207 110.812088 
L 105.861983 130.131693 
L 109.44876 160.97485 
L 113.035537 193.300506 
L 116.622314 219.56166 
L 120.209091 235.166501 
L 123.795868 238.658798 
L 127.382645 230.879898 
L 130.969421 214.574103 
L 134.556198 193.295408 
L 138.142975 170.751243 
L 141.729752 150.576461 
L 145.316529 135.297265 
L 148.903306 126.61537 
L 152.490083 125.281437 
L 156.07686 130.79655 
L 159.663636 142.150918 
L 163.250413 157.667594 
L 166.83719 175.264731 
L 170.423967 192.857784 
L 174.010744 208.50547 
L 177.597521 220.588173 
L 181.184298 227.919436 
L 184.771074 230.096801 
L 188.357851 226.928738 
L 191.944628 219.017465 
L 195.531405 207.261222 
L 199.118182 192.83869 
L 202.704959 177.341712 
L 206.291736 162.198143 
L 209.878512 148.805426 
L 213.465289 138.441979 
L 217.052066 131.8921 
L 220.638843 129.690535 
L 224.22562 132.065586 
L 227.812397 138.592505 
L 231.399174 148.802013 
L 234.98595 161.623865 
L 238.572727 175.916618 
L 242.159504 190.42158 
L 245.746281 203.900049 
L 249.333058 215.126342 
L 252.919835 223.263202 
L 256.506612 227.452578 
L 260.093388 227.413231 
L 263.680165 223.145962 
L 267.266942 214.963496 
L 270.853719 203.680989 
L 274.440496 190.184472 
L 278.027273 175.672744 
L 281.61405 161.398449 
L 285.200826 148.602307 
L 288.787603 138.46464 
L 292.37438 131.991224 
L 295.961157 129.69133 
L 299.547934 131.963806 
L 303.134711 138.572618 
L 306.721488 148.998359 
L 310.308264 162.414365 
L 313.895041 177.584828 
L 317.481818 193.077875 
L 321.068595 207.459677 
L 324.655372 219.157052 
L 328.242149 227.008432 
L 331.828926 230.112829 
L 335.415702 227.858879 
L 339.002479 220.439535 
L 342.589256 208.317781 
L 346.176033 192.633507 
L 349.76281 175.045157 
L 353.349587 157.456277 
L 356.936364 141.987622 
L 360.52314 130.698996 
L 364.109917 125.251548 
L 367.696694 126.672324 
L 371.283471 135.429018 
L 374.870248 150.757866 
L 378.457025 170.957445 
L 382.043802 193.498058 
L 385.630579 214.747654 
L 389.217355 230.972158 
L 392.804132 238.669946 
L 396.390909 235.093742 
L 399.977686 219.425926 
L 403.564463 193.126511 
L 407.15124 160.801767 
L 410.738017 130.007761 
L 414.324793 110.772977 
L 417.91157 113.454686 
L 421.498347 144.881002 
L 425.085124 201.722464 
L 428.671901 260.345023 
L 432.258678 264.409234 
L 435.845455 97.11754 
" clip-path="url(#p9df29c964f)" style="fill: none; stroke: #00ff80; stroke-width: 1.7; stroke-linecap: square"/>
   </g>
   <g id="patch_3">
    <path d="M 63 315 
L 63 43.2 
" style="fill: none; stroke: #000000; stroke-width: 0.8; stroke-linejoin: miter; stroke-linecap: square"/>
   </g>
   <g id="patch_4">
    <path d="M 453.6 315 
L 453.6 43.2 
" style="fill: none; stroke: #000000; stroke-width: 0.8; stroke-linejoin: miter; stroke-linecap: square"/>
   </g>
   <g id="patch_5">
    <path d="M 63 315 
L 453.6 315 
" style="fill: none; stroke: #000000; stroke-width: 0.8; stroke-linejoin: miter; stroke-linecap: square"/>
   </g>
   <g id="patch_6">
    <path d="M 63 43.2 
L 453.6 43.2 
" style="fill: none; stroke: #000000; stroke-width: 0.8; stroke-linejoin: miter; stroke-linecap: square"/>
   </g>
   <g id="text_8">
    <!-- Modes (columns) of U -->
    <g transform="translate(184.815 37.2)scale(0.12 -0.12)">
     <defs>
      <path id="DejaVuSans-Bold-4d" d="M 588 4666 
L 2119 4666 
L 3181 2169 
L 4250 4666 
L 5778 4666 
L 5778 0 
L 4641 0 
L 4641 3413 
L 3566 897 
L 2803 897 
L 1728 3413 
L 1728 0 
L 588 0 
L 588 4666 
z
" transform="scale(0.015625)"/>
      <path id="DejaVuSans-Bold-6f" d="M 2203 2784 
Q 1831 2784 1636 2517 
Q 1441 2250 1441 1747 
Q 1441 1244 1636 976 
Q 1831 709 2203 709 
Q 2569 709 2762 976 
Q 2956 1244 2956 1747 
Q 2956 2250 2762 2517 
Q 2569 2784 2203 2784 
z
M 2203 3584 
Q 3106 3584 3614 3096 
Q 4122 2609 4122 1747 
Q 4122 884 3614 396 
Q 3106 -91 2203 -91 
Q 1297 -91 786 396 
Q 275 884 275 1747 
Q 275 2609 786 3096 
Q 1297 3584 2203 3584 
z
" transform="scale(0.015625)"/>
      <path id="DejaVuSans-Bold-64" d="M 2919 2988 
L 2919 4863 
L 4044 4863 
L 4044 0 
L 2919 0 
L 2919 506 
Q 2688 197 2409 53 
Q 2131 -91 1766 -91 
Q 1119 -91 703 423 
Q 288 938 288 1747 
Q 288 2556 703 3070 
Q 1119 3584 1766 3584 
Q 2128 3584 2408 3439 
Q 2688 3294 2919 2988 
z
M 2181 722 
Q 2541 722 2730 984 
Q 2919 1247 2919 1747 
Q 2919 2247 2730 2509 
Q 2541 2772 2181 2772 
Q 1825 2772 1636 2509 
Q 1447 2247 1447 1747 
Q 1447 1247 1636 984 
Q 1825 722 2181 722 
z
" transform="scale(0.015625)"/>
      <path id="DejaVuSans-Bold-65" d="M 4031 1759 
L 4031 1441 
L 1416 1441 
Q 1456 1047 1700 850 
Q 1944 653 2381 653 
Q 2734 653 3104 758 
Q 3475 863 3866 1075 
L 3866 213 
Q 3469 63 3072 -14 
Q 2675 -91 2278 -91 
Q 1328 -91 801 392 
Q 275 875 275 1747 
Q 275 2603 792 3093 
Q 1309 3584 2216 3584 
Q 3041 3584 3536 3087 
Q 4031 2591 4031 1759 
z
M 2881 2131 
Q 2881 2450 2695 2645 
Q 2509 2841 2209 2841 
Q 1884 2841 1681 2658 
Q 1478 2475 1428 2131 
L 2881 2131 
z
" transform="scale(0.015625)"/>
      <path id="DejaVuSans-Bold-73" d="M 3272 3391 
L 3272 2541 
Q 2913 2691 2578 2766 
Q 2244 2841 1947 2841 
Q 1628 2841 1473 2761 
Q 1319 2681 1319 2516 
Q 1319 2381 1436 2309 
Q 1553 2238 1856 2203 
L 2053 2175 
Q 2913 2066 3209 1816 
Q 3506 1566 3506 1031 
Q 3506 472 3093 190 
Q 2681 -91 1863 -91 
Q 1516 -91 1145 -36 
Q 775 19 384 128 
L 384 978 
Q 719 816 1070 734 
Q 1422 653 1784 653 
Q 2113 653 2278 743 
Q 2444 834 2444 1013 
Q 2444 1163 2330 1236 
Q 2216 1309 1875 1350 
L 1678 1375 
Q 931 1469 631 1722 
Q 331 1975 331 2491 
Q 331 3047 712 3315 
Q 1094 3584 1881 3584 
Q 2191 3584 2531 3537 
Q 2872 3491 3272 3391 
z
" transform="scale(0.015625)"/>
      <path id="DejaVuSans-Bold-20" transform="scale(0.015625)"/>
      <path id="DejaVuSans-Bold-28" d="M 2413 -844 
L 1484 -844 
Q 1006 -72 778 623 
Q 550 1319 550 2003 
Q 550 2688 779 3389 
Q 1009 4091 1484 4856 
L 2413 4856 
Q 2013 4116 1813 3408 
Q 1613 2700 1613 2009 
Q 1613 1319 1811 609 
Q 2009 -100 2413 -844 
z
" transform="scale(0.015625)"/>
      <path id="DejaVuSans-Bold-63" d="M 3366 3391 
L 3366 2478 
Q 3138 2634 2908 2709 
Q 2678 2784 2431 2784 
Q 1963 2784 1702 2511 
Q 1441 2238 1441 1747 
Q 1441 1256 1702 982 
Q 1963 709 2431 709 
Q 2694 709 2930 787 
Q 3166 866 3366 1019 
L 3366 103 
Q 3103 6 2833 -42 
Q 2563 -91 2291 -91 
Q 1344 -91 809 395 
Q 275 881 275 1747 
Q 275 2613 809 3098 
Q 1344 3584 2291 3584 
Q 2566 3584 2833 3536 
Q 3100 3488 3366 3391 
z
" transform="scale(0.015625)"/>
      <path id="DejaVuSans-Bold-6c" d="M 538 4863 
L 1656 4863 
L 1656 0 
L 538 0 
L 538 4863 
z
" transform="scale(0.015625)"/>
      <path id="DejaVuSans-Bold-75" d="M 500 1363 
L 500 3500 
L 1625 3500 
L 1625 3150 
Q 1625 2866 1622 2436 
Q 1619 2006 1619 1863 
Q 1619 1441 1641 1255 
Q 1663 1069 1716 984 
Q 1784 875 1895 815 
Q 2006 756 2150 756 
Q 2500 756 2700 1025 
Q 2900 1294 2900 1772 
L 2900 3500 
L 4019 3500 
L 4019 0 
L 2900 0 
L 2900 506 
Q 2647 200 2364 54 
Q 2081 -91 1741 -91 
Q 1134 -91 817 281 
Q 500 653 500 1363 
z
" transform="scale(0.015625)"/>
      <path id="DejaVuSans-Bold-6d" d="M 3781 2919 
Q 3994 3244 4286 3414 
Q 4578 3584 4928 3584 
Q 5531 3584 5847 3212 
Q 6163 2841 6163 2131 
L 6163 0 
L 5038 0 
L 5038 1825 
Q 5041 1866 5042 1909 
Q 5044 1953 5044 2034 
Q 5044 2406 4934 2573 
Q 4825 2741 4581 2741 
Q 4263 2741 4089 2478 
Q 3916 2216 3909 1719 
L 3909 0 
L 2784 0 
L 2784 1825 
Q 2784 2406 2684 2573 
Q 2584 2741 2328 2741 
Q 2006 2741 1831 2477 
Q 1656 2213 1656 1722 
L 1656 0 
L 531 0 
L 531 3500 
L 1656 3500 
L 1656 2988 
Q 1863 3284 2130 3434 
Q 2397 3584 2719 3584 
Q 3081 3584 3359 3409 
Q 3638 3234 3781 2919 
z
" transform="scale(0.015625)"/>
      <path id="DejaVuSans-Bold-6e" d="M 4056 2131 
L 4056 0 
L 2931 0 
L 2931 347 
L 2931 1631 
Q 2931 2084 2911 2256 
Q 2891 2428 2841 2509 
Q 2775 2619 2662 2680 
Q 2550 2741 2406 2741 
Q 2056 2741 1856 2470 
Q 1656 2200 1656 1722 
L 1656 0 
L 538 0 
L 538 3500 
L 1656 3500 
L 1656 2988 
Q 1909 3294 2193 3439 
Q 2478 3584 2822 3584 
Q 3428 3584 3742 3212 
Q 4056 2841 4056 2131 
z
" transform="scale(0.015625)"/>
      <path id="DejaVuSans-Bold-29" d="M 513 -844 
Q 913 -100 1113 609 
Q 1313 1319 1313 2009 
Q 1313 2700 1113 3408 
Q 913 4116 513 4856 
L 1441 4856 
Q 1916 4091 2145 3389 
Q 2375 2688 2375 2003 
Q 2375 1319 2147 623 
Q 1919 -72 1441 -844 
L 513 -844 
z
" transform="scale(0.015625)"/>
      <path id="DejaVuSans-Bold-66" d="M 2841 4863 
L 2841 4128 
L 2222 4128 
Q 1984 4128 1890 4042 
Q 1797 3956 1797 3744 
L 1797 3500 
L 2753 3500 
L 2753 2700 
L 1797 2700 
L 1797 0 
L 678 0 
L 678 2700 
L 122 2700 
L 122 3500 
L 678 3500 
L 678 3744 
Q 678 4316 997 4589 
Q 1316 4863 1984 4863 
L 2841 4863 
z
" transform="scale(0.015625)"/>
      <path id="DejaVuSans-Bold-55" d="M 588 4666 
L 1791 4666 
L 1791 1869 
Q 1791 1291 1980 1042 
Q 2169 794 2597 794 
Q 3028 794 3217 1042 
Q 3406 1291 3406 1869 
L 3406 4666 
L 4609 4666 
L 4609 1869 
Q 4609 878 4112 393 
Q 3616 -91 2597 -91 
Q 1581 -91 1084 393 
Q 588 878 588 1869 
L 588 4666 
z
" transform="scale(0.015625)"/>
     </defs>
     <use xlink:href="#DejaVuSans-Bold-4d"/>
     <use xlink:href="#DejaVuSans-Bold-6f" x="99.511719"/>
     <use xlink:href="#DejaVuSans-Bold-64" x="168.212891"/>
     <use xlink:href="#DejaVuSans-Bold-65" x="239.794922"/>
     <use xlink:href="#DejaVuSans-Bold-73" x="307.617188"/>
     <use xlink:href="#DejaVuSans-Bold-20" x="367.138672"/>
     <use xlink:href="#DejaVuSans-Bold-28" x="401.953125"/>
     <use xlink:href="#DejaVuSans-Bold-63" x="447.65625"/>
     <use xlink:href="#DejaVuSans-Bold-6f" x="506.933594"/>
     <use xlink:href="#DejaVuSans-Bold-6c" x="575.634766"/>
     <use xlink:href="#DejaVuSans-Bold-75" x="609.912109"/>
     <use xlink:href="#DejaVuSans-Bold-6d" x="681.103516"/>
     <use xlink:href="#DejaVuSans-Bold-6e" x="785.302734"/>
     <use xlink:href="#DejaVuSans-Bold-73" x="856.494141"/>
     <use xlink:href="#DejaVuSans-Bold-29" x="916.015625"/>
     <use xlink:href="#DejaVuSans-Bold-20" x="961.71875"/>
     <use xlink:href="#DejaVuSans-Bold-6f" x="996.533203"/>
     <use xlink:href="#DejaVuSans-Bold-66" x="1065.234375"/>
     <use xlink:href="#DejaVuSans-Bold-20" x="1108.740234"/>
     <use xlink:href="#DejaVuSans-Bold-55" x="1143.554688"/>
    </g>
   </g>
  </g>
 </g>
 <defs>
  <clipPath id="p9df29c964f">
   <rect x="63" y="43.2" width="390.6" height="271.8"/>
  </clipPath>
 </defs>
</svg>
