<?xml version="1.0" encoding="utf-8" standalone="no"?>
<!DOCTYPE svg PUBLIC "-//W3C//DTD SVG 1.1//EN"
  "http://www.w3.org/Graphics/SVG/1.1/DTD/svg11.dtd">
<svg xmlns:xlink="http://www.w3.org/1999/xlink" width="504pt" height="360pt" viewBox="0 0 504 360" xmlns="http://www.w3.org/2000/svg" version="1.1">
 <metadata>
  <rdf:RDF xmlns:dc="http://purl.org/dc/elements/1.1/" xmlns:cc="http://creativecommons.org/ns#" xmlns:rdf="http://www.w3.org/1999/02/22-rdf-syntax-ns#">
   <cc:Work>
    <dc:type rdf:resource="http://purl.org/dc/dcmitype/StillImage"/>
    <dc:date>2022-05-10T10:36:39.719304</dc:date>
    <dc:format>image/svg+xml</dc:format>
    <dc:creator>
     <cc:Agent>
      <dc:title>Matplotlib v3.5.2, https://matplotlib.org/</dc:title>
     </cc:Agent>
    </dc:creator>
   </cc:Work>
  </rdf:RDF>
 </metadata>
 <defs>
  <style type="text/css">*{stroke-linejoin: round; stroke-linecap: butt}</style>
 </defs>
 <g id="figure_1">
  <g id="patch_1">
   <path d="M 0 360 
L 504 360 
L 504 0 
L 0 0 
L 0 360 
z
" style="fill: none"/>
  </g>
  <g id="axes_1">
   <g id="patch_2">
    <path d="M 63 315 
L 453.6 315 
L 453.6 43.2 
L 63 43.2 
z
" style="fill: #ffffff"/>
   </g>
   <g id="matplotlib.axis_1">
    <g id="xtick_1">
     <g id="line2d_1">
      <defs>
       <path id="m68b4d65699" d="M 0 0 
L 0 3.5 
" style="stroke: #000000; stroke-width: 0.8"/>
      </defs>
      <g>
       <use xlink:href="#m68b4d65699" x="80.754545" y="315" style="stroke: #000000; stroke-width: 0.8"/>
      </g>
     </g>
     <g id="text_1">
      <!-- 0 -->
      <g transform="translate(77.573295 329.598437)scale(0.1 -0.1)">
       <defs>
        <path id="DejaVuSans-30" d="M 2034 4250 
Q 1547 4250 1301 3770 
Q 1056 3291 1056 2328 
Q 1056 1369 1301 889 
Q 1547 409 2034 409 
Q 2525 409 2770 889 
Q 3016 1369 3016 2328 
Q 3016 3291 2770 3770 
Q 2525 4250 2034 4250 
z
M 2034 4750 
Q 2819 4750 3233 4129 
Q 3647 3509 3647 2328 
Q 3647 1150 3233 529 
Q 2819 -91 2034 -91 
Q 1250 -91 836 529 
Q 422 1150 422 2328 
Q 422 3509 836 4129 
Q 1250 4750 2034 4750 
z
" transform="scale(0.015625)"/>
       </defs>
       <use xlink:href="#DejaVuSans-30"/>
      </g>
     </g>
    </g>
    <g id="xtick_2">
     <g id="line2d_2">
      <g>
       <use xlink:href="#m68b4d65699" x="152.490083" y="315" style="stroke: #000000; stroke-width: 0.8"/>
      </g>
     </g>
     <g id="text_2">
      <!-- 20 -->
      <g transform="translate(146.127583 329.598437)scale(0.1 -0.1)">
       <defs>
        <path id="DejaVuSans-32" d="M 1228 531 
L 3431 531 
L 3431 0 
L 469 0 
L 469 531 
Q 828 903 1448 1529 
Q 2069 2156 2228 2338 
Q 2531 2678 2651 2914 
Q 2772 3150 2772 3378 
Q 2772 3750 2511 3984 
Q 2250 4219 1831 4219 
Q 1534 4219 1204 4116 
Q 875 4013 500 3803 
L 500 4441 
Q 881 4594 1212 4672 
Q 1544 4750 1819 4750 
Q 2544 4750 2975 4387 
Q 3406 4025 3406 3419 
Q 3406 3131 3298 2873 
Q 3191 2616 2906 2266 
Q 2828 2175 2409 1742 
Q 1991 1309 1228 531 
z
" transform="scale(0.015625)"/>
       </defs>
       <use xlink:href="#DejaVuSans-32"/>
       <use xlink:href="#DejaVuSans-30" x="63.623047"/>
      </g>
     </g>
    </g>
    <g id="xtick_3">
     <g id="line2d_3">
      <g>
       <use xlink:href="#m68b4d65699" x="224.22562" y="315" style="stroke: #000000; stroke-width: 0.8"/>
      </g>
     </g>
     <g id="text_3">
      <!-- 40 -->
      <g transform="translate(217.86312 329.598437)scale(0.1 -0.1)">
       <defs>
        <path id="DejaVuSans-34" d="M 2419 4116 
L 825 1625 
L 2419 1625 
L 2419 4116 
z
M 2253 4666 
L 3047 4666 
L 3047 1625 
L 3713 1625 
L 3713 1100 
L 3047 1100 
L 3047 0 
L 2419 0 
L 2419 1100 
L 313 1100 
L 313 1709 
L 2253 4666 
z
" transform="scale(0.015625)"/>
       </defs>
       <use xlink:href="#DejaVuSans-34"/>
       <use xlink:href="#DejaVuSans-30" x="63.623047"/>
      </g>
     </g>
    </g>
    <g id="xtick_4">
     <g id="line2d_4">
      <g>
       <use xlink:href="#m68b4d65699" x="295.961157" y="315" style="stroke: #000000; stroke-width: 0.8"/>
      </g>
     </g>
     <g id="text_4">
      <!-- 60 -->
      <g transform="translate(289.598657 329.598437)scale(0.1 -0.1)">
       <defs>
        <path id="DejaVuSans-36" d="M 2113 2584 
Q 1688 2584 1439 2293 
Q 1191 2003 1191 1497 
Q 1191 994 1439 701 
Q 1688 409 2113 409 
Q 2538 409 2786 701 
Q 3034 994 3034 1497 
Q 3034 2003 2786 2293 
Q 2538 2584 2113 2584 
z
M 3366 4563 
L 3366 3988 
Q 3128 4100 2886 4159 
Q 2644 4219 2406 4219 
Q 1781 4219 1451 3797 
Q 1122 3375 1075 2522 
Q 1259 2794 1537 2939 
Q 1816 3084 2150 3084 
Q 2853 3084 3261 2657 
Q 3669 2231 3669 1497 
Q 3669 778 3244 343 
Q 2819 -91 2113 -91 
Q 1303 -91 875 529 
Q 447 1150 447 2328 
Q 447 3434 972 4092 
Q 1497 4750 2381 4750 
Q 2619 4750 2861 4703 
Q 3103 4656 3366 4563 
z
" transform="scale(0.015625)"/>
       </defs>
       <use xlink:href="#DejaVuSans-36"/>
       <use xlink:href="#DejaVuSans-30" x="63.623047"/>
      </g>
     </g>
    </g>
    <g id="xtick_5">
     <g id="line2d_5">
      <g>
       <use xlink:href="#m68b4d65699" x="367.696694" y="315" style="stroke: #000000; stroke-width: 0.8"/>
      </g>
     </g>
     <g id="text_5">
      <!-- 80 -->
      <g transform="translate(361.334194 329.598437)scale(0.1 -0.1)">
       <defs>
        <path id="DejaVuSans-38" d="M 2034 2216 
Q 1584 2216 1326 1975 
Q 1069 1734 1069 1313 
Q 1069 891 1326 650 
Q 1584 409 2034 409 
Q 2484 409 2743 651 
Q 3003 894 3003 1313 
Q 3003 1734 2745 1975 
Q 2488 2216 2034 2216 
z
M 1403 2484 
Q 997 2584 770 2862 
Q 544 3141 544 3541 
Q 544 4100 942 4425 
Q 1341 4750 2034 4750 
Q 2731 4750 3128 4425 
Q 3525 4100 3525 3541 
Q 3525 3141 3298 2862 
Q 3072 2584 2669 2484 
Q 3125 2378 3379 2068 
Q 3634 1759 3634 1313 
Q 3634 634 3220 271 
Q 2806 -91 2034 -91 
Q 1263 -91 848 271 
Q 434 634 434 1313 
Q 434 1759 690 2068 
Q 947 2378 1403 2484 
z
M 1172 3481 
Q 1172 3119 1398 2916 
Q 1625 2713 2034 2713 
Q 2441 2713 2670 2916 
Q 2900 3119 2900 3481 
Q 2900 3844 2670 4047 
Q 2441 4250 2034 4250 
Q 1625 4250 1398 4047 
Q 1172 3844 1172 3481 
z
" transform="scale(0.015625)"/>
       </defs>
       <use xlink:href="#DejaVuSans-38"/>
       <use xlink:href="#DejaVuSans-30" x="63.623047"/>
      </g>
     </g>
    </g>
    <g id="xtick_6">
     <g id="line2d_6">
      <g>
       <use xlink:href="#m68b4d65699" x="439.432231" y="315" style="stroke: #000000; stroke-width: 0.8"/>
      </g>
     </g>
     <g id="text_6">
      <!-- 100 -->
      <g transform="translate(429.888481 329.598437)scale(0.1 -0.1)">
       <defs>
        <path id="DejaVuSans-31" d="M 794 531 
L 1825 531 
L 1825 4091 
L 703 3866 
L 703 4441 
L 1819 4666 
L 2450 4666 
L 2450 531 
L 3481 531 
L 3481 0 
L 794 0 
L 794 531 
z
" transform="scale(0.015625)"/>
       </defs>
       <use xlink:href="#DejaVuSans-31"/>
       <use xlink:href="#DejaVuSans-30" x="63.623047"/>
       <use xlink:href="#DejaVuSans-30" x="127.246094"/>
      </g>
     </g>
    </g>
   </g>
   <g id="matplotlib.axis_2">
    <g id="text_7">
     <!--    $u_r$          -->
     <g transform="translate(31.65 177.020312)scale(0.1 -0.1)">
      <defs>
       <path id="DejaVuSans-20" transform="scale(0.015625)"/>
       <path id="DejaVuSans-Oblique-75" d="M 428 1388 
L 838 3500 
L 1416 3500 
L 1006 1409 
Q 975 1256 961 1147 
Q 947 1038 947 966 
Q 947 700 1109 554 
Q 1272 409 1569 409 
Q 2031 409 2368 721 
Q 2706 1034 2809 1563 
L 3194 3500 
L 3769 3500 
L 3091 0 
L 2516 0 
L 2631 550 
Q 2388 244 2052 76 
Q 1716 -91 1338 -91 
Q 878 -91 622 161 
Q 366 413 366 863 
Q 366 956 381 1097 
Q 397 1238 428 1388 
z
" transform="scale(0.015625)"/>
       <path id="DejaVuSans-Oblique-72" d="M 2853 2969 
Q 2766 3016 2653 3041 
Q 2541 3066 2413 3066 
Q 1953 3066 1609 2717 
Q 1266 2369 1153 1784 
L 800 0 
L 225 0 
L 909 3500 
L 1484 3500 
L 1375 2956 
Q 1603 3259 1920 3421 
Q 2238 3584 2597 3584 
Q 2691 3584 2781 3573 
Q 2872 3563 2963 3538 
L 2853 2969 
z
" transform="scale(0.015625)"/>
      </defs>
      <use xlink:href="#DejaVuSans-20" transform="translate(0 0.3125)"/>
      <use xlink:href="#DejaVuSans-20" transform="translate(31.787109 0.3125)"/>
      <use xlink:href="#DejaVuSans-20" transform="translate(63.574219 0.3125)"/>
      <use xlink:href="#DejaVuSans-Oblique-75" transform="translate(95.361328 0.3125)"/>
      <use xlink:href="#DejaVuSans-Oblique-72" transform="translate(158.740234 -16.09375)scale(0.7)"/>
      <use xlink:href="#DejaVuSans-20" transform="translate(190.253906 0.3125)"/>
      <use xlink:href="#DejaVuSans-20" transform="translate(222.041016 0.3125)"/>
      <use xlink:href="#DejaVuSans-20" transform="translate(253.828125 0.3125)"/>
      <use xlink:href="#DejaVuSans-20" transform="translate(285.615234 0.3125)"/>
      <use xlink:href="#DejaVuSans-20" transform="translate(317.402344 0.3125)"/>
      <use xlink:href="#DejaVuSans-20" transform="translate(349.189453 0.3125)"/>
      <use xlink:href="#DejaVuSans-20" transform="translate(380.976562 0.3125)"/>
      <use xlink:href="#DejaVuSans-20" transform="translate(412.763672 0.3125)"/>
      <use xlink:href="#DejaVuSans-20" transform="translate(444.550781 0.3125)"/>
     </g>
    </g>
   </g>
   <g id="line2d_7">
    <path d="M 80.754545 220.787162 
L 84.341322 220.842138 
L 87.928099 220.896099 
L 91.514876 220.94904 
L 95.101653 221.000954 
L 98.68843 221.051835 
L 102.275207 221.101678 
L 105.861983 221.150475 
L 109.44876 221.198221 
L 113.035537 221.24491 
L 116.622314 221.290537 
L 120.209091 221.335097 
L 123.795868 221.378583 
L 127.382645 221.42099 
L 130.969421 221.462314 
L 134.556198 221.502549 
L 138.142975 221.54169 
L 141.729752 221.579733 
L 145.316529 221.616673 
L 148.903306 221.652505 
L 152.490083 221.687225 
L 156.07686 221.720829 
L 159.663636 221.753312 
L 163.250413 221.784671 
L 166.83719 221.814901 
L 170.423967 221.844 
L 174.010744 221.871963 
L 177.597521 221.898786 
L 181.184298 221.924467 
L 184.771074 221.949003 
L 188.357851 221.97239 
L 191.944628 221.994625 
L 195.531405 222.015705 
L 199.118182 222.035629 
L 202.704959 222.054393 
L 206.291736 222.071996 
L 209.878512 222.088434 
L 213.465289 222.103706 
L 217.052066 222.117811 
L 220.638843 222.130745 
L 224.22562 222.142508 
L 227.812397 222.153098 
L 231.399174 222.162514 
L 234.98595 222.170755 
L 238.572727 222.177819 
L 242.159504 222.183706 
L 245.746281 222.188415 
L 249.333058 222.191946 
L 252.919835 222.194297 
L 256.506612 222.195469 
L 260.093388 222.195462 
L 263.680165 222.194275 
L 267.266942 222.191909 
L 270.853719 222.188364 
L 274.440496 222.18364 
L 278.027273 222.177738 
L 281.61405 222.17066 
L 285.200826 222.162404 
L 288.787603 222.152974 
L 292.37438 222.142369 
L 295.961157 222.130592 
L 299.547934 222.117643 
L 303.134711 222.103525 
L 306.721488 222.088239 
L 310.308264 222.071787 
L 313.895041 222.054172 
L 317.481818 222.035394 
L 321.068595 222.015457 
L 324.655372 221.994364 
L 328.242149 221.972116 
L 331.828926 221.948717 
L 335.415702 221.924169 
L 339.002479 221.898476 
L 342.589256 221.871641 
L 346.176033 221.843667 
L 349.76281 221.814557 
L 353.349587 221.784316 
L 356.936364 221.752947 
L 360.52314 221.720453 
L 364.109917 221.68684 
L 367.696694 221.65211 
L 371.283471 221.616269 
L 374.870248 221.579321 
L 378.457025 221.54127 
L 382.043802 221.502121 
L 385.630579 221.461879 
L 389.217355 221.420548 
L 392.804132 221.378134 
L 396.390909 221.334642 
L 399.977686 221.290077 
L 403.564463 221.244445 
L 407.15124 221.197751 
L 410.738017 221.150001 
L 414.324793 221.101201 
L 417.91157 221.051356 
L 421.498347 221.000473 
L 425.085124 220.948557 
L 428.671901 220.895615 
L 432.258678 220.841653 
L 435.845455 220.786678 
" clip-path="url(#p9ab5baa183)" style="fill: none; stroke: #0000ff; stroke-width: 1.7; stroke-linecap: square"/>
   </g>
   <g id="line2d_8">
    <path d="M 80.754545 250.720534 
L 84.341322 249.418648 
L 87.928099 248.108223 
L 91.514876 246.789398 
L 95.101653 245.462316 
L 98.68843 244.127121 
L 102.275207 242.783957 
L 105.861983 241.432973 
L 109.44876 240.07432 
L 113.035537 238.708148 
L 116.622314 237.334612 
L 120.209091 235.953868 
L 123.795868 234.566073 
L 127.382645 233.171388 
L 130.969421 231.769972 
L 134.556198 230.36199 
L 138.142975 228.947607 
L 141.729752 227.526988 
L 145.316529 226.100303 
L 148.903306 224.66772 
L 152.490083 223.229413 
L 156.07686 221.785552 
L 159.663636 220.336314 
L 163.250413 218.881874 
L 166.83719 217.422409 
L 170.423967 215.958098 
L 174.010744 214.489121 
L 177.597521 213.015659 
L 181.184298 211.537894 
L 184.771074 210.056011 
L 188.357851 208.570195 
L 191.944628 207.08063 
L 195.531405 205.587503 
L 199.118182 204.091004 
L 202.704959 202.59132 
L 206.291736 201.088641 
L 209.878512 199.583158 
L 213.465289 198.075062 
L 217.052066 196.564544 
L 220.638843 195.051798 
L 224.22562 193.537017 
L 227.812397 192.020394 
L 231.399174 190.502125 
L 234.98595 188.982403 
L 238.572727 187.461424 
L 242.159504 185.939384 
L 245.746281 184.416479 
L 249.333058 182.892904 
L 252.919835 181.368856 
L 256.506612 179.844531 
L 260.093388 178.320127 
L 263.680165 176.795838 
L 267.266942 175.271863 
L 270.853719 173.748398 
L 274.440496 172.225638 
L 278.027273 170.703781 
L 281.61405 169.183021 
L 285.200826 167.663555 
L 288.787603 166.145577 
L 292.37438 164.629284 
L 295.961157 163.114868 
L 299.547934 161.602525 
L 303.134711 160.092447 
L 306.721488 158.584826 
L 310.308264 157.079857 
L 313.895041 155.577728 
L 317.481818 154.078632 
L 321.068595 152.582757 
L 324.655372 151.090294 
L 328.242149 149.601429 
L 331.828926 148.116349 
L 335.415702 146.635242 
L 339.002479 145.158291 
L 342.589256 143.68568 
L 346.176033 142.217592 
L 349.76281 140.754209 
L 353.349587 139.29571 
L 356.936364 137.842275 
L 360.52314 136.394081 
L 364.109917 134.951303 
L 367.696694 133.514118 
L 371.283471 132.082697 
L 374.870248 130.657212 
L 378.457025 129.237834 
L 382.043802 127.824731 
L 385.630579 126.418069 
L 389.217355 125.018015 
L 392.804132 123.62473 
L 396.390909 122.238377 
L 399.977686 120.859116 
L 403.564463 119.487105 
L 407.15124 118.122498 
L 410.738017 116.765452 
L 414.324793 115.416118 
L 417.91157 114.074645 
L 421.498347 112.741183 
L 425.085124 111.415877 
L 428.671901 110.098872 
L 432.258678 108.790309 
L 435.845455 107.490328 
" clip-path="url(#p9ab5baa183)" style="fill: none; stroke: #0012f6; stroke-width: 1.7; stroke-linecap: square"/>
   </g>
   <g id="line2d_9">
    <path d="M 80.754545 270.082876 
L 84.341322 264.859849 
L 87.928099 259.717081 
L 91.514876 254.656079 
L 95.101653 249.678331 
L 98.68843 244.785307 
L 102.275207 239.978453 
L 105.861983 235.259198 
L 109.44876 230.628946 
L 113.035537 226.08908 
L 116.622314 221.640958 
L 120.209091 217.285918 
L 123.795868 213.025269 
L 127.382645 208.860297 
L 130.969421 204.792264 
L 134.556198 200.822402 
L 138.142975 196.951919 
L 141.729752 193.181994 
L 145.316529 189.513778 
L 148.903306 185.948395 
L 152.490083 182.486937 
L 156.07686 179.130468 
L 159.663636 175.880022 
L 163.250413 172.736601 
L 166.83719 169.701176 
L 170.423967 166.774687 
L 174.010744 163.958041 
L 177.597521 161.252112 
L 181.184298 158.657743 
L 184.771074 156.175739 
L 188.357851 153.806876 
L 191.944628 151.551893 
L 195.531405 149.411493 
L 199.118182 147.386347 
L 202.704959 145.477089 
L 206.291736 143.684315 
L 209.878512 142.00859 
L 213.465289 140.450437 
L 217.052066 139.010346 
L 220.638843 137.68877 
L 224.22562 136.486122 
L 227.812397 135.402781 
L 231.399174 134.439087 
L 234.98595 133.595341 
L 238.572727 132.871807 
L 242.159504 132.268714 
L 245.746281 131.786247 
L 249.333058 131.424557 
L 252.919835 131.183757 
L 256.506612 131.063918 
L 260.093388 131.065075 
L 263.680165 131.187225 
L 267.266942 131.430326 
L 270.853719 131.794297 
L 274.440496 132.279019 
L 278.027273 132.884334 
L 281.61405 133.610047 
L 285.200826 134.455924 
L 288.787603 135.421694 
L 292.37438 136.507047 
L 295.961157 137.711635 
L 299.547934 139.035073 
L 303.134711 140.47694 
L 306.721488 142.036776 
L 310.308264 143.714084 
L 313.895041 145.508331 
L 317.481818 147.418949 
L 321.068595 149.445331 
L 324.655372 151.586837 
L 328.242149 153.842789 
L 331.828926 156.212477 
L 335.415702 158.695153 
L 339.002479 161.290037 
L 342.589256 163.996314 
L 346.176033 166.813135 
L 349.76281 169.739618 
L 353.349587 172.774851 
L 356.936364 175.917886 
L 360.52314 179.167744 
L 364.109917 182.523417 
L 367.696694 185.983865 
L 371.283471 189.548016 
L 374.870248 193.21477 
L 378.457025 196.982999 
L 382.043802 200.851544 
L 385.630579 204.819219 
L 389.217355 208.88481 
L 392.804132 213.047078 
L 396.390909 217.304755 
L 399.977686 221.656549 
L 403.564463 226.101143 
L 407.15124 230.637195 
L 410.738017 235.263339 
L 414.324793 239.978187 
L 417.91157 244.780327 
L 421.498347 249.668327 
L 425.085124 254.640733 
L 428.671901 259.69607 
L 432.258678 264.832843 
L 435.845455 270.04954 
" clip-path="url(#p9ab5baa183)" style="fill: none; stroke: #0024ed; stroke-width: 1.7; stroke-linecap: square"/>
   </g>
   <g id="line2d_10">
    <path d="M 80.754545 283.724698 
L 84.341322 271.600634 
L 87.928099 260.025933 
L 91.514876 248.995465 
L 95.101653 238.503767 
L 98.68843 228.545038 
L 102.275207 219.113145 
L 105.861983 210.201627 
L 109.44876 201.803694 
L 113.035537 193.912233 
L 116.622314 186.519811 
L 120.209091 179.618676 
L 123.795868 173.200768 
L 127.382645 167.257713 
L 130.969421 161.780836 
L 134.556198 156.761164 
L 138.142975 152.189426 
L 141.729752 148.056064 
L 145.316529 144.351236 
L 148.903306 141.064822 
L 152.490083 138.186429 
L 156.07686 135.705399 
L 159.663636 133.610813 
L 163.250413 131.8915 
L 166.83719 130.536044 
L 170.423967 129.532787 
L 174.010744 128.86984 
L 177.597521 128.535092 
L 181.184298 128.51621 
L 184.771074 128.800658 
L 188.357851 129.375693 
L 191.944628 130.228384 
L 195.531405 131.345612 
L 199.118182 132.714083 
L 202.704959 134.320337 
L 206.291736 136.150754 
L 209.878512 138.191564 
L 213.465289 140.428858 
L 217.052066 142.848594 
L 220.638843 145.436609 
L 224.22562 148.178628 
L 227.812397 151.060273 
L 231.399174 154.06707 
L 234.98595 157.184466 
L 238.572727 160.39783 
L 242.159504 163.692469 
L 245.746281 167.053636 
L 249.333058 170.46654 
L 252.919835 173.916355 
L 256.506612 177.388231 
L 260.093388 180.867306 
L 263.680165 184.338713 
L 267.266942 187.78759 
L 270.853719 191.199092 
L 274.440496 194.558403 
L 278.027273 197.850739 
L 281.61405 201.061366 
L 285.200826 204.175604 
L 288.787603 207.178841 
L 292.37438 210.05654 
L 295.961157 212.794251 
L 299.547934 215.377619 
L 303.134711 217.792394 
L 306.721488 220.024441 
L 310.308264 222.059751 
L 313.895041 223.884445 
L 317.481818 225.48479 
L 321.068595 226.847203 
L 324.655372 227.958264 
L 328.242149 228.804719 
L 331.828926 229.373496 
L 335.415702 229.651707 
L 339.002479 229.626661 
L 342.589256 229.285868 
L 346.176033 228.617051 
L 349.76281 227.608152 
L 353.349587 226.247338 
L 356.936364 224.523012 
L 360.52314 222.423817 
L 364.109917 219.938644 
L 367.696694 217.05664 
L 371.283471 213.767211 
L 374.870248 210.060035 
L 378.457025 205.92506 
L 382.043802 201.352517 
L 385.630579 196.33292 
L 389.217355 190.857075 
L 392.804132 184.916084 
L 396.390909 178.50135 
L 399.977686 171.604581 
L 403.564463 164.217797 
L 407.15124 156.33333 
L 410.738017 147.943831 
L 414.324793 139.042273 
L 417.91157 129.621953 
L 421.498347 119.676497 
L 425.085124 109.199864 
L 428.671901 98.186342 
L 432.258678 86.63056 
L 435.845455 74.527483 
" clip-path="url(#p9ab5baa183)" style="fill: none; stroke: #0036e4; stroke-width: 1.7; stroke-linecap: square"/>
   </g>
   <g id="line2d_11">
    <path d="M 80.754545 293.128445 
L 84.341322 270.993284 
L 87.928099 250.740895 
L 91.514876 232.299625 
L 95.101653 215.597711 
L 98.68843 200.563355 
L 102.275207 187.124808 
L 105.861983 175.210447 
L 109.44876 164.748862 
L 113.035537 155.668931 
L 116.622314 147.899903 
L 120.209091 141.371479 
L 123.795868 136.013892 
L 127.382645 131.757986 
L 130.969421 128.535297 
L 134.556198 126.278132 
L 138.142975 124.919645 
L 141.729752 124.393917 
L 145.316529 124.636032 
L 148.903306 125.58215 
L 152.490083 127.169585 
L 156.07686 129.336879 
L 159.663636 132.02387 
L 163.250413 135.171764 
L 166.83719 138.723207 
L 170.423967 142.62235 
L 174.010744 146.814916 
L 177.597521 151.248263 
L 181.184298 155.871448 
L 184.771074 160.635288 
L 188.357851 165.492417 
L 191.944628 170.397341 
L 195.531405 175.306497 
L 199.118182 180.178301 
L 202.704959 184.973199 
L 206.291736 189.653714 
L 209.878512 194.184491 
L 213.465289 198.532342 
L 217.052066 202.66628 
L 220.638843 206.557563 
L 224.22562 210.179723 
L 227.812397 213.508601 
L 231.399174 216.522374 
L 234.98595 219.201584 
L 238.572727 221.529159 
L 242.159504 223.490433 
L 245.746281 225.073167 
L 249.333058 226.267558 
L 252.919835 227.066258 
L 256.506612 227.464376 
L 260.093388 227.459488 
L 263.680165 227.051637 
L 267.266942 226.243334 
L 270.853719 225.039555 
L 274.440496 223.447735 
L 278.027273 221.477757 
L 281.61405 219.141942 
L 285.200826 216.455031 
L 288.787603 213.434169 
L 292.37438 210.098885 
L 295.961157 206.471065 
L 299.547934 202.574926 
L 303.134711 198.43699 
L 306.721488 194.086046 
L 310.308264 189.55312 
L 313.895041 184.871434 
L 317.481818 180.076368 
L 321.068595 175.205412 
L 324.655372 170.298131 
L 328.242149 165.396104 
L 331.828926 160.542886 
L 335.415702 155.783946 
L 339.002479 151.166619 
L 342.589256 146.740045 
L 346.176033 142.555111 
L 349.76281 138.664393 
L 353.349587 135.122089 
L 356.936364 131.983956 
L 360.52314 129.307244 
L 364.109917 127.150628 
L 367.696694 125.574139 
L 371.283471 124.639092 
L 374.870248 124.408014 
L 378.457025 124.944568 
L 382.043802 126.313484 
L 385.630579 128.580478 
L 389.217355 131.812178 
L 392.804132 136.076044 
L 396.390909 141.440292 
L 399.977686 147.973813 
L 403.564463 155.746095 
L 407.15124 164.827142 
L 410.738017 175.287395 
L 414.324793 187.197647 
L 417.91157 200.628968 
L 421.498347 215.652621 
L 425.085124 232.339982 
L 428.671901 250.762457 
L 432.258678 270.991406 
L 435.845455 293.09806 
" clip-path="url(#p9ab5baa183)" style="fill: none; stroke: #0049db; stroke-width: 1.7; stroke-linecap: square"/>
   </g>
   <g id="line2d_12">
    <path d="M 80.754545 59.032861 
L 84.341322 94.02366 
L 87.928099 124.313436 
L 91.514876 150.240439 
L 95.101653 172.132952 
L 98.68843 190.309038 
L 102.275207 205.076299 
L 105.861983 216.73166 
L 109.44876 225.561172 
L 113.035537 231.839838 
L 116.622314 235.83146 
L 120.209091 237.788505 
L 123.795868 237.952001 
L 127.382645 236.551444 
L 130.969421 233.804741 
L 134.556198 229.918164 
L 138.142975 225.086335 
L 141.729752 219.492229 
L 145.316529 213.307204 
L 148.903306 206.691051 
L 152.490083 199.792065 
L 156.07686 192.747148 
L 159.663636 185.681922 
L 163.250413 178.710875 
L 166.83719 171.937521 
L 170.423967 165.45459 
L 174.010744 159.344229 
L 177.597521 153.678236 
L 181.184298 148.518306 
L 184.771074 143.916298 
L 188.357851 139.914527 
L 191.944628 136.546069 
L 195.531405 133.83509 
L 199.118182 131.797186 
L 202.704959 130.439745 
L 206.291736 129.762328 
L 209.878512 129.757058 
L 213.465289 130.409029 
L 217.052066 131.69673 
L 220.638843 133.592479 
L 224.22562 136.062869 
L 227.812397 139.069232 
L 231.399174 142.568104 
L 234.98595 146.51171 
L 238.572727 150.848444 
L 242.159504 155.523373 
L 245.746281 160.478736 
L 249.333058 165.654451 
L 252.919835 170.988631 
L 256.506612 176.418097 
L 260.093388 181.8789 
L 263.680165 187.306837 
L 267.266942 192.63798 
L 270.853719 197.809186 
L 274.440496 202.758624 
L 278.027273 207.426286 
L 281.61405 211.754503 
L 285.200826 215.688449 
L 288.787603 219.176642 
L 292.37438 222.171445 
L 295.961157 224.629545 
L 299.547934 226.512434 
L 303.134711 227.786881 
L 306.721488 228.425385 
L 310.308264 228.406622 
L 313.895041 227.715878 
L 317.481818 226.345473 
L 321.068595 224.295162 
L 324.655372 221.572526 
L 328.242149 218.193352 
L 331.828926 214.181987 
L 335.415702 209.571677 
L 339.002479 204.404899 
L 342.589256 198.733655 
L 346.176033 192.619766 
L 349.76281 186.135133 
L 353.349587 179.361985 
L 356.936364 172.393101 
L 360.52314 165.332019 
L 364.109917 158.293211 
L 367.696694 151.402249 
L 371.283471 144.795943 
L 374.870248 138.622452 
L 378.457025 133.041384 
L 382.043802 128.22386 
L 385.630579 124.352567 
L 389.217355 121.621777 
L 392.804132 120.237355 
L 396.390909 120.416731 
L 399.977686 122.388863 
L 403.564463 126.394162 
L 407.15124 132.684408 
L 410.738017 141.522636 
L 414.324793 153.183003 
L 417.91157 167.950626 
L 421.498347 186.121414 
L 425.085124 208.00186 
L 428.671901 233.908824 
L 432.258678 264.169293 
L 435.845455 299.120121 
" clip-path="url(#p9ab5baa183)" style="fill: none; stroke: #005bd2; stroke-width: 1.7; stroke-linecap: square"/>
   </g>
   <g id="line2d_13">
    <path d="M 80.754545 56.011652 
L 84.341322 106.277717 
L 87.928099 146.813331 
L 91.514876 178.711217 
L 95.101653 202.996165 
L 98.68843 220.626224 
L 102.275207 232.494012 
L 105.861983 239.42813 
L 109.44876 242.194698 
L 113.035537 241.498978 
L 116.622314 237.98711 
L 120.209091 232.247925 
L 123.795868 224.814853 
L 127.382645 216.16791 
L 130.969421 206.73575 
L 134.556198 196.89779 
L 138.142975 186.986396 
L 141.729752 177.289114 
L 145.316529 168.050956 
L 148.903306 159.476713 
L 152.490083 151.733314 
L 156.07686 144.952189 
L 159.663636 139.23167 
L 163.250413 134.639383 
L 166.83719 131.214654 
L 170.423967 128.970897 
L 174.010744 127.898001 
L 177.597521 127.964689 
L 181.184298 129.120847 
L 184.771074 131.299826 
L 188.357851 134.420691 
L 191.944628 138.390429 
L 195.531405 143.1061 
L 199.118182 148.456918 
L 202.704959 154.326273 
L 206.291736 160.593669 
L 209.878512 167.136586 
L 213.465289 173.832255 
L 217.052066 180.559334 
L 220.638843 187.199497 
L 224.22562 193.63891 
L 227.812397 199.769604 
L 231.399174 205.490744 
L 234.98595 210.709766 
L 238.572727 215.343413 
L 242.159504 219.31864 
L 245.746281 222.573394 
L 249.333058 225.057268 
L 252.919835 226.732032 
L 256.506612 227.572023 
L 260.093388 227.564412 
L 263.680165 226.709332 
L 267.266942 225.019879 
L 270.853719 222.521974 
L 274.440496 219.254098 
L 278.027273 215.266892 
L 281.61405 210.622626 
L 285.200826 205.394541 
L 288.787603 199.666065 
L 292.37438 193.529903 
L 295.961157 187.087004 
L 299.547934 180.445413 
L 303.134711 173.71901 
L 306.721488 167.026126 
L 310.308264 160.488072 
L 313.895041 154.227548 
L 317.481818 148.366964 
L 321.068595 143.026668 
L 324.655372 138.323088 
L 328.242149 134.366788 
L 331.828926 131.260455 
L 335.415702 129.096819 
L 339.002479 127.956501 
L 342.589256 127.90582 
L 346.176033 128.994536 
L 349.76281 131.253564 
L 353.349587 134.692646 
L 356.936364 139.297999 
L 360.52314 145.029939 
L 364.109917 151.820501 
L 367.696694 159.57104 
L 371.283471 168.149849 
L 374.870248 177.389773 
L 378.457025 187.085852 
L 382.043802 196.992981 
L 385.630579 206.8236 
L 389.217355 216.245431 
L 392.804132 224.879258 
L 396.390909 232.296752 
L 399.977686 238.018368 
L 403.564463 241.511306 
L 407.15124 242.187536 
L 410.738017 239.401916 
L 414.324793 232.450389 
L 417.91157 220.568269 
L 421.498347 202.928634 
L 425.085124 178.640811 
L 428.671901 146.748979 
L 432.258678 106.230878 
L 435.845455 55.996639 
" clip-path="url(#p9ab5baa183)" style="fill: none; stroke: #006dc8; stroke-width: 1.7; stroke-linecap: square"/>
   </g>
   <g id="line2d_14">
    <path d="M 80.754545 55.554545 
L 84.341322 122.804646 
L 87.928099 172.406669 
L 91.514876 207.165559 
L 95.101653 229.609918 
L 98.68843 242.006284 
L 102.275207 246.373443 
L 105.861983 244.496745 
L 109.44876 237.942366 
L 113.035537 228.071481 
L 116.622314 216.0543 
L 120.209091 202.883915 
L 123.795868 189.389943 
L 127.382645 176.251889 
L 130.969421 164.012228 
L 134.556198 153.089142 
L 138.142975 143.788891 
L 141.729752 136.317782 
L 145.316529 130.793708 
L 148.903306 127.257226 
L 152.490083 125.682151 
L 156.07686 125.985636 
L 159.663636 128.037736 
L 163.250413 131.670409 
L 166.83719 136.685963 
L 170.423967 142.86493 
L 174.010744 149.973343 
L 177.597521 157.769432 
L 181.184298 166.009717 
L 184.771074 174.4545 
L 188.357851 182.872757 
L 191.944628 191.046447 
L 195.531405 198.774216 
L 199.118182 205.87453 
L 202.704959 212.188246 
L 206.291736 217.580618 
L 209.878512 221.942775 
L 213.465289 225.192676 
L 217.052066 227.275581 
L 220.638843 228.164032 
L 224.22562 227.857407 
L 227.812397 226.381043 
L 231.399174 223.784978 
L 234.98595 220.142336 
L 238.572727 215.547383 
L 242.159504 210.113303 
L 245.746281 203.969719 
L 249.333058 197.25999 
L 252.919835 190.138343 
L 256.506612 182.76686 
L 260.093388 175.312361 
L 263.680165 167.943237 
L 267.266942 160.826255 
L 270.853719 154.123389 
L 274.440496 147.988711 
L 278.027273 142.565377 
L 281.61405 137.982761 
L 285.200826 134.353761 
L 288.787603 131.772326 
L 292.37438 130.311233 
L 295.961157 130.020155 
L 299.547934 130.924054 
L 303.134711 133.021926 
L 306.721488 136.285941 
L 310.308264 140.660993 
L 313.895041 146.064705 
L 317.481818 152.387896 
L 321.068595 159.495551 
L 324.655372 167.228303 
L 328.242149 175.404452 
L 331.828926 183.822537 
L 335.415702 192.264475 
L 339.002479 200.499277 
L 342.589256 208.287349 
L 346.176033 215.385393 
L 349.76281 221.551898 
L 353.349587 226.553234 
L 356.936364 230.170335 
L 360.52314 232.20598 
L 364.109917 232.492656 
L 367.696694 230.900988 
L 371.283471 227.348737 
L 374.870248 221.810338 
L 378.457025 214.326964 
L 382.043802 205.0171 
L 385.630579 194.087589 
L 389.217355 181.845149 
L 392.804132 168.708302 
L 396.390909 155.21971 
L 399.977686 142.058877 
L 403.564463 130.055179 
L 407.15124 120.201186 
L 410.738017 113.666246 
L 414.324793 111.810283 
L 417.91157 116.19777 
L 421.498347 128.611838 
L 425.085124 151.06847 
L 428.671901 185.83075 
L 432.258678 235.423094 
L 435.845455 302.645455 
" clip-path="url(#p9ab5baa183)" style="fill: none; stroke: #0080bf; stroke-width: 1.7; stroke-linecap: square"/>
   </g>
   <g id="line2d_15">
    <path d="M 80.754545 57.36341 
L 84.341322 142.566181 
L 87.928099 198.695471 
L 91.514876 231.923142 
L 95.101653 247.559176 
L 98.68843 250.126865 
L 102.275207 243.43508 
L 105.861983 230.647504 
L 109.44876 214.348693 
L 113.035537 196.606903 
L 116.622314 179.033584 
L 120.209091 162.839494 
L 123.795868 148.88739 
L 127.382645 137.741263 
L 130.969421 129.712127 
L 134.556198 124.900342 
L 138.142975 123.234533 
L 141.729752 124.507107 
L 145.316529 128.40645 
L 148.903306 134.545859 
L 152.490083 142.4893 
L 156.07686 151.774085 
L 159.663636 161.930574 
L 163.250413 172.499024 
L 166.83719 183.043725 
L 170.423967 193.164538 
L 174.010744 202.506012 
L 177.597521 210.764216 
L 181.184298 217.691455 
L 184.771074 223.099043 
L 188.357851 226.858284 
L 191.944628 228.899872 
L 195.531405 229.211841 
L 199.118182 227.836288 
L 202.704959 224.865004 
L 206.291736 220.434225 
L 209.878512 214.718647 
L 213.465289 207.92489 
L 217.052066 200.284575 
L 220.638843 192.04716 
L 224.22562 183.472699 
L 227.812397 174.824667 
L 231.399174 166.362978 
L 234.98595 158.337324 
L 238.572727 150.980958 
L 242.159504 144.505019 
L 245.746281 139.093489 
L 249.333058 134.898868 
L 252.919835 132.038635 
L 256.506612 130.592546 
L 260.093388 130.600808 
L 263.680165 132.063172 
L 267.266942 134.93893 
L 270.853719 139.147856 
L 274.440496 144.572028 
L 278.027273 151.058555 
L 281.61405 158.423121 
L 285.200826 166.454323 
L 288.787603 174.918722 
L 292.37438 183.566522 
L 295.961157 192.137798 
L 299.547934 200.369154 
L 303.134711 208.000704 
L 306.721488 214.783247 
L 310.308264 220.485505 
L 313.895041 224.901274 
L 317.481818 227.856338 
L 321.068595 229.214997 
L 324.655372 228.886029 
L 328.242149 226.827934 
L 331.828926 223.053268 
L 335.415702 217.63192 
L 339.002479 210.693121 
L 342.589256 202.426043 
L 346.176033 193.07878 
L 349.76281 182.955566 
L 353.349587 172.412036 
L 356.936364 161.848376 
L 360.52314 151.700201 
L 364.109917 142.426994 
L 367.696694 134.497976 
L 371.283471 128.375256 
L 374.870248 124.494132 
L 378.457025 123.240433 
L 382.043802 124.924784 
L 385.630579 129.753709 
L 389.217355 137.797479 
L 392.804132 148.954647 
L 396.390909 162.913212 
L 399.977686 179.108369 
L 403.564463 196.676829 
L 407.15124 214.4077 
L 410.738017 230.689932 
L 414.324793 243.456364 
L 417.91157 250.1244 
L 421.498347 247.533389 
L 425.085124 231.87878 
L 428.671901 198.643136 
L 432.258678 142.52414 
L 435.845455 57.359701 
" clip-path="url(#p9ab5baa183)" style="fill: none; stroke: #0092b6; stroke-width: 1.7; stroke-linecap: square"/>
   </g>
   <g id="line2d_16">
    <path d="M 80.754545 297.077484 
L 84.341322 193.896278 
L 87.928099 135.046226 
L 91.514876 108.466876 
L 95.101653 104.333612 
L 98.68843 114.777105 
L 102.275207 133.623966 
L 105.861983 156.158121 
L 109.44876 178.902469 
L 113.035537 199.420196 
L 116.622314 216.135135 
L 120.209091 228.170431 
L 123.795868 235.204779 
L 127.382645 237.34538 
L 130.969421 235.016782 
L 134.556198 228.864695 
L 138.142975 219.673841 
L 141.729752 208.298921 
L 145.316529 195.607679 
L 148.903306 182.435137 
L 152.490083 169.547986 
L 156.07686 157.618171 
L 159.663636 147.204701 
L 163.250413 138.742734 
L 166.83719 132.539018 
L 170.423967 128.772773 
L 174.010744 127.501161 
L 177.597521 128.668517 
L 181.184298 132.118559 
L 184.771074 137.608809 
L 188.357851 144.826586 
L 191.944628 153.405895 
L 195.531405 162.94465 
L 199.118182 173.021707 
L 202.704959 183.21324 
L 206.291736 193.108067 
L 209.878512 202.32156 
L 213.465289 210.50789 
L 217.052066 217.370366 
L 220.638843 222.669699 
L 224.22562 226.230101 
L 227.812397 227.943156 
L 231.399174 227.769476 
L 234.98595 225.738178 
L 238.572727 221.944293 
L 242.159504 216.544242 
L 245.746281 209.749552 
L 249.333058 201.819034 
L 252.919835 193.049656 
L 256.506612 183.76637 
L 260.093388 174.311201 
L 263.680165 165.031861 
L 267.266942 156.270225 
L 270.853719 148.350956 
L 274.440496 141.570592 
L 278.027273 136.187401 
L 281.61405 132.412264 
L 285.200826 130.400879 
L 288.787603 130.247502 
L 292.37438 131.980452 
L 295.961157 135.559545 
L 299.547934 140.875607 
L 303.134711 147.752157 
L 306.721488 155.949308 
L 310.308264 165.169884 
L 313.895041 175.067721 
L 317.481818 185.258014 
L 321.068595 195.329573 
L 324.655372 204.858751 
L 328.242149 213.424761 
L 331.828926 220.626055 
L 335.415702 226.097331 
L 339.002479 229.526747 
L 342.589256 230.672775 
L 346.176033 229.380155 
L 349.76281 225.594279 
L 353.349587 219.373355 
L 356.936364 210.897579 
L 360.52314 200.474548 
L 364.109917 188.540096 
L 367.696694 175.653673 
L 371.283471 162.487381 
L 374.870248 149.807743 
L 378.457025 138.449257 
L 382.043802 129.27877 
L 385.630579 123.149715 
L 389.217355 120.845207 
L 392.804132 123.009069 
L 396.390909 130.063771 
L 399.977686 142.114389 
L 403.564463 158.837625 
L 407.15124 179.355012 
L 410.738017 202.089449 
L 414.324793 224.60425 
L 417.91157 243.423953 
L 421.498347 253.836185 
L 425.085124 249.673951 
L 428.671901 223.077766 
L 432.258678 164.237159 
L 435.845455 61.111115 
" clip-path="url(#p9ab5baa183)" style="fill: none; stroke: #00a4ad; stroke-width: 1.7; stroke-linecap: square"/>
   </g>
   <g id="line2d_17">
    <path d="M 80.754545 291.74347 
L 84.341322 171.343842 
L 87.928099 114.523058 
L 91.514876 99.753099 
L 95.101653 110.591477 
L 98.68843 134.829375 
L 102.275207 163.73661 
L 105.861983 191.396795 
L 109.44876 214.127215 
L 113.035537 229.977045 
L 116.622314 238.297829 
L 120.209091 239.380287 
L 123.795868 234.151608 
L 127.382645 223.927241 
L 130.969421 210.211752 
L 134.556198 194.54326 
L 138.142975 178.376051 
L 141.729752 162.996802 
L 145.316529 149.469199 
L 148.903306 138.602923 
L 152.490083 130.942596 
L 156.07686 126.773082 
L 159.663636 126.137308 
L 163.250413 128.863806 
L 166.83719 134.600776 
L 170.423967 142.854223 
L 174.010744 153.028059 
L 177.597521 164.464032 
L 181.184298 176.480169 
L 184.771074 188.406034 
L 188.357851 199.614122 
L 191.944628 209.546499 
L 195.531405 217.736044 
L 199.118182 223.822212 
L 202.704959 227.561104 
L 206.291736 228.830081 
L 209.878512 227.626874 
L 213.465289 224.064097 
L 217.052066 218.359368 
L 220.638843 210.82162 
L 224.22562 201.834576 
L 227.812397 191.837892 
L 231.399174 181.306852 
L 234.98595 170.731431 
L 238.572727 160.595344 
L 242.159504 151.356023 
L 245.746281 143.425932 
L 249.333058 137.156192 
L 252.919835 132.822635 
L 256.506612 130.615068 
L 260.093388 130.629919 
L 263.680165 132.866452 
L 267.266942 137.226894 
L 270.853719 143.520141 
L 274.440496 151.46922 
L 278.027273 160.722101 
L 281.61405 170.865604 
L 285.200826 181.441956 
L 288.787603 191.96732 
L 292.37438 201.951991 
L 295.961157 210.921211 
L 299.547934 218.436164 
L 303.134711 224.114226 
L 306.721488 227.647792 
L 310.308264 228.820712 
L 313.895041 227.521939 
L 317.481818 223.75527 
L 321.068595 217.644905 
L 324.655372 209.436108 
L 328.242149 199.490536 
L 331.828926 188.27619 
L 335.415702 176.351475 
L 339.002479 164.343995 
L 342.589256 152.923818 
L 346.176033 142.772182 
L 349.76281 134.546065 
L 353.349587 128.839968 
L 356.936364 126.145955 
L 360.52314 126.813657 
L 364.109917 131.012304 
L 367.696694 138.696716 
L 371.283471 149.580016 
L 374.870248 163.115916 
L 378.457025 178.493654 
L 382.043802 194.649125 
L 385.630579 210.296203 
L 389.217355 223.981979 
L 392.804132 234.170863 
L 396.390909 239.36172 
L 399.977686 238.243387 
L 403.564463 229.893498 
L 407.15124 214.026205 
L 410.738017 191.294217 
L 414.324793 163.651049 
L 417.91157 134.779233 
L 421.498347 110.590493 
L 425.085124 99.803925 
L 428.671901 114.60813 
L 432.258678 171.413358 
L 435.845455 291.699529 
" clip-path="url(#p9ab5baa183)" style="fill: none; stroke: #00b6a4; stroke-width: 1.7; stroke-linecap: square"/>
   </g>
   <g id="line2d_18">
    <path d="M 80.754545 285.115946 
L 84.341322 149.20166 
L 87.928099 99.734889 
L 91.514876 101.136906 
L 95.101653 128.21186 
L 98.68843 163.934129 
L 102.275207 197.576566 
L 105.861983 223.140652 
L 109.44876 238.060398 
L 113.035537 242.146741 
L 116.622314 236.74309 
L 120.209091 224.064952 
L 123.795868 206.69886 
L 127.382645 187.235024 
L 130.969421 168.013616 
L 134.556198 150.96433 
L 138.142975 137.519868 
L 141.729752 128.590585 
L 145.316529 124.581953 
L 148.903306 125.445886 
L 152.490083 130.752911 
L 156.07686 139.77801 
L 159.663636 151.589983 
L 163.250413 165.141456 
L 166.83719 179.352068 
L 170.423967 193.182143 
L 174.010744 205.695119 
L 177.597521 216.105724 
L 181.184298 223.815268 
L 184.771074 228.431285 
L 188.357851 229.774789 
L 191.944628 227.875518 
L 195.531405 222.955505 
L 199.118182 215.404663 
L 202.704959 205.749023 
L 206.291736 194.61502 
L 209.878512 182.68913 
L 213.465289 170.678869 
L 217.052066 159.274442 
L 220.638843 149.112272 
L 224.22562 140.744103 
L 227.812397 134.610845 
L 231.399174 131.02304 
L 234.98595 130.148643 
L 238.572727 132.007389 
L 242.159504 136.473331 
L 245.746281 143.283081 
L 249.333058 152.052108 
L 252.919835 162.294903 
L 256.506612 173.450798 
L 260.093388 184.912879 
L 263.680165 196.058372 
L 267.266942 206.281025 
L 270.853719 215.02126 
L 274.440496 221.795296 
L 278.027273 226.220341 
L 281.61405 228.035539 
L 285.200826 227.117444 
L 288.787603 223.488193 
L 292.37438 217.318222 
L 295.961157 208.920273 
L 299.547934 198.737058 
L 303.134711 187.321514 
L 306.721488 175.311173 
L 310.308264 163.395878 
L 313.895041 152.282952 
L 317.481818 142.657838 
L 321.068595 135.144723 
L 324.655372 130.26759 
L 328.242149 128.413487 
L 331.828926 129.801897 
L 335.415702 134.45901 
L 339.002479 142.203303 
L 342.589256 152.639632 
L 346.176033 165.167157 
L 349.76281 178.999292 
L 353.349587 193.199053 
L 356.936364 206.727432 
L 360.52314 218.505198 
L 364.109917 227.487548 
L 367.696694 232.746883 
L 371.283471 233.56184 
L 374.870248 229.507636 
L 378.457025 220.540789 
L 382.043802 207.070831 
L 385.630579 190.011542 
L 389.217355 170.797659 
L 392.804132 151.359042 
L 396.390909 134.033844 
L 399.977686 121.408021 
L 403.564463 116.061043 
L 407.15124 120.199811 
L 410.738017 135.157501 
L 414.324793 160.73519 
L 417.91157 194.35989 
L 421.498347 230.031951 
L 425.085124 257.033188 
L 428.671901 258.364355 
L 432.258678 208.880109 
L 435.845455 73.087223 
" clip-path="url(#p9ab5baa183)" style="fill: none; stroke: #00c99b; stroke-width: 1.7; stroke-linecap: square"/>
   </g>
   <g id="line2d_19">
    <path d="M 80.754545 80.640222 
L 84.341322 229.769631 
L 87.928099 266.448838 
L 91.514876 245.927565 
L 95.101653 203.972917 
L 98.68843 161.993952 
L 102.275207 131.144768 
L 105.861983 115.586993 
L 109.44876 115.003595 
L 113.035537 126.498891 
L 116.622314 145.990218 
L 120.209091 169.18116 
L 123.795868 192.192084 
L 127.382645 211.935507 
L 130.969421 226.28472 
L 134.556198 234.093186 
L 138.142975 235.120995 
L 141.729752 229.878574 
L 145.316529 219.451367 
L 148.903306 205.300663 
L 152.490083 189.077386 
L 156.07686 172.445957 
L 159.663636 156.948304 
L 163.250413 143.88628 
L 166.83719 134.246395 
L 170.423967 128.659099 
L 174.010744 127.383724 
L 177.597521 130.327775 
L 181.184298 137.078838 
L 184.771074 146.966879 
L 188.357851 159.130307 
L 191.944628 172.586548 
L 195.531405 186.311946 
L 199.118182 199.311141 
L 202.704959 210.683074 
L 206.291736 219.669582 
L 209.878512 225.707424 
L 213.465289 228.449178 
L 217.052066 227.773842 
L 220.638843 223.791207 
L 224.22562 216.822272 
L 227.812397 207.374109 
L 231.399174 196.103119 
L 234.98595 183.768202 
L 238.572727 171.184962 
L 242.159504 159.170679 
L 245.746281 148.500372 
L 249.333058 139.852873 
L 252.919835 133.776754 
L 256.506612 130.655492 
L 260.093388 130.68438 
L 263.680165 133.863445 
L 267.266942 139.990851 
L 270.853719 148.680322 
L 274.440496 159.380811 
L 278.027273 171.410368 
L 281.61405 183.995425 
L 285.200826 196.315379 
L 288.787603 207.558195 
L 292.37438 216.964603 
L 295.961157 223.882263 
L 299.547934 227.80765 
L 303.134711 228.423777 
L 306.721488 225.624113 
L 310.308264 219.534039 
L 313.895041 210.504395 
L 317.481818 199.104614 
L 321.068595 186.091857 
L 324.655372 172.36864 
L 328.242149 158.932209 
L 331.828926 146.803061 
L 335.415702 136.962761 
L 339.002479 130.268582 
L 342.589256 127.387446 
L 346.176033 128.72313 
L 349.76281 134.36641 
L 353.349587 144.051475 
L 356.936364 157.143475 
L 360.52314 172.653421 
L 364.109917 189.276046 
L 367.696694 205.471318 
L 371.283471 219.57598 
L 374.870248 229.944324 
L 378.457025 235.119629 
L 382.043802 234.026606 
L 385.630579 226.158564 
L 389.217355 211.768831 
L 392.804132 192.007046 
L 396.390909 169.005725 
L 399.977686 145.852545 
L 403.564463 126.422732 
L 407.15124 115.003742 
L 410.738017 115.663441 
L 414.324793 131.278428 
L 417.91157 162.147902 
L 421.498347 204.098475 
L 425.085124 245.972456 
L 428.671901 266.389628 
L 432.258678 229.650866 
L 435.845455 80.647332 
" clip-path="url(#p9ab5baa183)" style="fill: none; stroke: #00db92; stroke-width: 1.7; stroke-linecap: square"/>
   </g>
   <g id="line2d_20">
    <path d="M 80.754545 88.850652 
L 84.341322 248.238908 
L 87.928099 267.127296 
L 91.514876 226.650631 
L 95.101653 174.003259 
L 98.68843 133.207504 
L 102.275207 113.185879 
L 105.861983 113.821074 
L 109.44876 130.233636 
L 113.035537 155.715629 
L 116.622314 183.635241 
L 120.209091 208.540647 
L 123.795868 226.654341 
L 127.382645 235.996908 
L 130.969421 236.218178 
L 134.556198 228.267139 
L 138.142975 214.037074 
L 141.729752 195.918843 
L 145.316529 176.469692 
L 148.903306 158.085411 
L 152.490083 142.783707 
L 156.07686 132.024408 
L 159.663636 126.671943 
L 163.250413 126.954894 
L 166.83719 132.526746 
L 170.423967 142.57058 
L 174.010744 155.905342 
L 177.597521 171.143267 
L 181.184298 186.797554 
L 184.771074 201.4469 
L 188.357851 213.842119 
L 191.944628 222.979923 
L 195.531405 228.188864 
L 199.118182 229.150206 
L 202.704959 225.909217 
L 206.291736 218.823198 
L 209.878512 208.568416 
L 213.465289 196.042911 
L 217.052066 182.276878 
L 220.638843 168.38106 
L 224.22562 155.43909 
L 227.812397 144.439068 
L 231.399174 136.205311 
L 234.98595 131.330424 
L 238.572727 130.155058 
L 242.159504 132.727977 
L 245.746281 138.837613 
L 249.333058 147.994109 
L 252.919835 159.497923 
L 256.506612 172.478415 
L 260.093388 185.951818 
L 263.680165 198.914982 
L 267.266942 210.382575 
L 270.853719 219.487735 
L 274.440496 225.530417 
L 278.027273 228.037027 
L 281.61405 226.792511 
L 285.200826 221.850287 
L 288.787603 213.56129 
L 292.37438 202.52016 
L 295.961157 189.553537 
L 299.547934 175.652336 
L 303.134711 161.905912 
L 306.721488 149.409541 
L 310.308264 139.21097 
L 313.895041 132.190053 
L 317.481818 129.011858 
L 321.068595 130.046465 
L 324.655372 135.322254 
L 328.242149 144.520867 
L 331.828926 156.949611 
L 335.415702 171.622229 
L 339.002479 187.272796 
L 342.589256 202.483915 
L 346.176033 215.77476 
L 349.76281 225.760571 
L 353.349587 231.263533 
L 356.936364 231.46589 
L 360.52314 226.043437 
L 364.109917 215.228683 
L 367.696694 199.883153 
L 371.283471 181.487595 
L 374.870248 162.054146 
L 378.457025 143.975242 
L 382.043802 129.809028 
L 385.630579 121.935372 
L 389.217355 122.236613 
L 392.804132 131.650813 
L 396.390909 149.817013 
L 399.977686 174.738728 
L 403.564463 202.642294 
L 407.15124 228.065647 
L 410.738017 244.393116 
L 414.324793 244.938845 
L 417.91157 224.84352 
L 421.498347 184.016039 
L 425.085124 131.414187 
L 428.671901 91.040741 
L 432.258678 110.035878 
L 435.845455 269.371218 
" clip-path="url(#p9ab5baa183)" style="fill: none; stroke: #00ed88; stroke-width: 1.7; stroke-linecap: square"/>
   </g>
   <g id="line2d_21">
    <path d="M 80.754545 97.375969 
L 84.341322 263.91584 
L 87.928099 260.649857 
L 91.514876 201.624887 
L 95.101653 144.749471 
L 98.68843 113.407297 
L 102.275207 110.790761 
L 105.861983 130.065631 
L 109.44876 160.923888 
L 113.035537 193.297698 
L 116.622314 219.57093 
L 120.209091 235.20754 
L 123.795868 238.667718 
L 127.382645 230.919809 
L 130.969421 214.602617 
L 134.556198 193.2691 
L 138.142975 170.790376 
L 141.729752 150.553817 
L 145.316529 135.266323 
L 148.903306 126.598214 
L 152.490083 125.22508 
L 156.07686 130.768188 
L 159.663636 142.154899 
L 163.250413 157.67685 
L 166.83719 175.271459 
L 170.423967 192.879031 
L 174.010744 208.510117 
L 177.597521 220.581827 
L 181.184298 227.979483 
L 184.771074 230.097708 
L 188.357851 226.96193 
L 191.944628 219.022646 
L 195.531405 207.237115 
L 199.118182 192.851118 
L 202.704959 177.348081 
L 206.291736 162.188894 
L 209.878512 148.795822 
L 213.465289 138.413109 
L 217.052066 131.862078 
L 220.638843 129.688373 
L 224.22562 132.030748 
L 227.812397 138.600298 
L 231.399174 148.781243 
L 234.98595 161.604064 
L 238.572727 175.914686 
L 242.159504 190.428923 
L 245.746281 203.901809 
L 249.333058 215.17534 
L 252.919835 223.255548 
L 256.506612 227.480504 
L 260.093388 227.433635 
L 263.680165 223.151139 
L 267.266942 215.010972 
L 270.853719 203.6898 
L 274.440496 190.18957 
L 278.027273 175.65717 
L 281.61405 161.377464 
L 285.200826 148.58296 
L 288.787603 138.465097 
L 292.37438 131.956732 
L 295.961157 129.683356 
L 299.547934 131.93384 
L 303.134711 138.558227 
L 306.721488 148.994071 
L 310.308264 162.417035 
L 313.895041 177.573503 
L 317.481818 193.08717 
L 321.068595 207.443455 
L 324.655372 219.167781 
L 328.242149 227.046539 
L 331.828926 230.100152 
L 335.415702 227.907786 
L 339.002479 220.442188 
L 342.589256 208.334318 
L 346.176033 192.653677 
L 349.76281 175.041218 
L 353.349587 157.466436 
L 356.936364 141.987086 
L 360.52314 130.671737 
L 364.109917 125.198399 
L 367.696694 126.654887 
L 371.283471 135.391221 
L 374.870248 150.739609 
L 378.457025 170.995787 
L 382.043802 193.487586 
L 385.630579 214.757416 
L 389.217355 231.022916 
L 392.804132 238.68226 
L 396.390909 235.137521 
L 399.977686 219.429807 
L 403.564463 193.116107 
L 407.15124 160.749535 
L 410.738017 129.947256 
L 414.324793 110.750073 
L 417.91157 113.454452 
L 421.498347 144.890662 
L 425.085124 201.765264 
L 428.671901 260.718836 
L 432.258678 263.851985 
L 435.845455 97.317865 
" clip-path="url(#p9ab5baa183)" style="fill: none; stroke: #00ff80; stroke-width: 1.7; stroke-linecap: square"/>
   </g>
   <g id="patch_3">
    <path d="M 63 315 
L 63 43.2 
" style="fill: none; stroke: #000000; stroke-width: 0.8; stroke-linejoin: miter; stroke-linecap: square"/>
   </g>
   <g id="patch_4">
    <path d="M 453.6 315 
L 453.6 43.2 
" style="fill: none; stroke: #000000; stroke-width: 0.8; stroke-linejoin: miter; stroke-linecap: square"/>
   </g>
   <g id="patch_5">
    <path d="M 63 315 
L 453.6 315 
" style="fill: none; stroke: #000000; stroke-width: 0.8; stroke-linejoin: miter; stroke-linecap: square"/>
   </g>
   <g id="patch_6">
    <path d="M 63 43.2 
L 453.6 43.2 
" style="fill: none; stroke: #000000; stroke-width: 0.8; stroke-linejoin: miter; stroke-linecap: square"/>
   </g>
   <g id="text_8">
    <!-- Modes (columns) of U -->
    <g transform="translate(184.815 37.2)scale(0.12 -0.12)">
     <defs>
      <path id="DejaVuSans-Bold-4d" d="M 588 4666 
L 2119 4666 
L 3181 2169 
L 4250 4666 
L 5778 4666 
L 5778 0 
L 4641 0 
L 4641 3413 
L 3566 897 
L 2803 897 
L 1728 3413 
L 1728 0 
L 588 0 
L 588 4666 
z
" transform="scale(0.015625)"/>
      <path id="DejaVuSans-Bold-6f" d="M 2203 2784 
Q 1831 2784 1636 2517 
Q 1441 2250 1441 1747 
Q 1441 1244 1636 976 
Q 1831 709 2203 709 
Q 2569 709 2762 976 
Q 2956 1244 2956 1747 
Q 2956 2250 2762 2517 
Q 2569 2784 2203 2784 
z
M 2203 3584 
Q 3106 3584 3614 3096 
Q 4122 2609 4122 1747 
Q 4122 884 3614 396 
Q 3106 -91 2203 -91 
Q 1297 -91 786 396 
Q 275 884 275 1747 
Q 275 2609 786 3096 
Q 1297 3584 2203 3584 
z
" transform="scale(0.015625)"/>
      <path id="DejaVuSans-Bold-64" d="M 2919 2988 
L 2919 4863 
L 4044 4863 
L 4044 0 
L 2919 0 
L 2919 506 
Q 2688 197 2409 53 
Q 2131 -91 1766 -91 
Q 1119 -91 703 423 
Q 288 938 288 1747 
Q 288 2556 703 3070 
Q 1119 3584 1766 3584 
Q 2128 3584 2408 3439 
Q 2688 3294 2919 2988 
z
M 2181 722 
Q 2541 722 2730 984 
Q 2919 1247 2919 1747 
Q 2919 2247 2730 2509 
Q 2541 2772 2181 2772 
Q 1825 2772 1636 2509 
Q 1447 2247 1447 1747 
Q 1447 1247 1636 984 
Q 1825 722 2181 722 
z
" transform="scale(0.015625)"/>
      <path id="DejaVuSans-Bold-65" d="M 4031 1759 
L 4031 1441 
L 1416 1441 
Q 1456 1047 1700 850 
Q 1944 653 2381 653 
Q 2734 653 3104 758 
Q 3475 863 3866 1075 
L 3866 213 
Q 3469 63 3072 -14 
Q 2675 -91 2278 -91 
Q 1328 -91 801 392 
Q 275 875 275 1747 
Q 275 2603 792 3093 
Q 1309 3584 2216 3584 
Q 3041 3584 3536 3087 
Q 4031 2591 4031 1759 
z
M 2881 2131 
Q 2881 2450 2695 2645 
Q 2509 2841 2209 2841 
Q 1884 2841 1681 2658 
Q 1478 2475 1428 2131 
L 2881 2131 
z
" transform="scale(0.015625)"/>
      <path id="DejaVuSans-Bold-73" d="M 3272 3391 
L 3272 2541 
Q 2913 2691 2578 2766 
Q 2244 2841 1947 2841 
Q 1628 2841 1473 2761 
Q 1319 2681 1319 2516 
Q 1319 2381 1436 2309 
Q 1553 2238 1856 2203 
L 2053 2175 
Q 2913 2066 3209 1816 
Q 3506 1566 3506 1031 
Q 3506 472 3093 190 
Q 2681 -91 1863 -91 
Q 1516 -91 1145 -36 
Q 775 19 384 128 
L 384 978 
Q 719 816 1070 734 
Q 1422 653 1784 653 
Q 2113 653 2278 743 
Q 2444 834 2444 1013 
Q 2444 1163 2330 1236 
Q 2216 1309 1875 1350 
L 1678 1375 
Q 931 1469 631 1722 
Q 331 1975 331 2491 
Q 331 3047 712 3315 
Q 1094 3584 1881 3584 
Q 2191 3584 2531 3537 
Q 2872 3491 3272 3391 
z
" transform="scale(0.015625)"/>
      <path id="DejaVuSans-Bold-20" transform="scale(0.015625)"/>
      <path id="DejaVuSans-Bold-28" d="M 2413 -844 
L 1484 -844 
Q 1006 -72 778 623 
Q 550 1319 550 2003 
Q 550 2688 779 3389 
Q 1009 4091 1484 4856 
L 2413 4856 
Q 2013 4116 1813 3408 
Q 1613 2700 1613 2009 
Q 1613 1319 1811 609 
Q 2009 -100 2413 -844 
z
" transform="scale(0.015625)"/>
      <path id="DejaVuSans-Bold-63" d="M 3366 3391 
L 3366 2478 
Q 3138 2634 2908 2709 
Q 2678 2784 2431 2784 
Q 1963 2784 1702 2511 
Q 1441 2238 1441 1747 
Q 1441 1256 1702 982 
Q 1963 709 2431 709 
Q 2694 709 2930 787 
Q 3166 866 3366 1019 
L 3366 103 
Q 3103 6 2833 -42 
Q 2563 -91 2291 -91 
Q 1344 -91 809 395 
Q 275 881 275 1747 
Q 275 2613 809 3098 
Q 1344 3584 2291 3584 
Q 2566 3584 2833 3536 
Q 3100 3488 3366 3391 
z
" transform="scale(0.015625)"/>
      <path id="DejaVuSans-Bold-6c" d="M 538 4863 
L 1656 4863 
L 1656 0 
L 538 0 
L 538 4863 
z
" transform="scale(0.015625)"/>
      <path id="DejaVuSans-Bold-75" d="M 500 1363 
L 500 3500 
L 1625 3500 
L 1625 3150 
Q 1625 2866 1622 2436 
Q 1619 2006 1619 1863 
Q 1619 1441 1641 1255 
Q 1663 1069 1716 984 
Q 1784 875 1895 815 
Q 2006 756 2150 756 
Q 2500 756 2700 1025 
Q 2900 1294 2900 1772 
L 2900 3500 
L 4019 3500 
L 4019 0 
L 2900 0 
L 2900 506 
Q 2647 200 2364 54 
Q 2081 -91 1741 -91 
Q 1134 -91 817 281 
Q 500 653 500 1363 
z
" transform="scale(0.015625)"/>
      <path id="DejaVuSans-Bold-6d" d="M 3781 2919 
Q 3994 3244 4286 3414 
Q 4578 3584 4928 3584 
Q 5531 3584 5847 3212 
Q 6163 2841 6163 2131 
L 6163 0 
L 5038 0 
L 5038 1825 
Q 5041 1866 5042 1909 
Q 5044 1953 5044 2034 
Q 5044 2406 4934 2573 
Q 4825 2741 4581 2741 
Q 4263 2741 4089 2478 
Q 3916 2216 3909 1719 
L 3909 0 
L 2784 0 
L 2784 1825 
Q 2784 2406 2684 2573 
Q 2584 2741 2328 2741 
Q 2006 2741 1831 2477 
Q 1656 2213 1656 1722 
L 1656 0 
L 531 0 
L 531 3500 
L 1656 3500 
L 1656 2988 
Q 1863 3284 2130 3434 
Q 2397 3584 2719 3584 
Q 3081 3584 3359 3409 
Q 3638 3234 3781 2919 
z
" transform="scale(0.015625)"/>
      <path id="DejaVuSans-Bold-6e" d="M 4056 2131 
L 4056 0 
L 2931 0 
L 2931 347 
L 2931 1631 
Q 2931 2084 2911 2256 
Q 2891 2428 2841 2509 
Q 2775 2619 2662 2680 
Q 2550 2741 2406 2741 
Q 2056 2741 1856 2470 
Q 1656 2200 1656 1722 
L 1656 0 
L 538 0 
L 538 3500 
L 1656 3500 
L 1656 2988 
Q 1909 3294 2193 3439 
Q 2478 3584 2822 3584 
Q 3428 3584 3742 3212 
Q 4056 2841 4056 2131 
z
" transform="scale(0.015625)"/>
      <path id="DejaVuSans-Bold-29" d="M 513 -844 
Q 913 -100 1113 609 
Q 1313 1319 1313 2009 
Q 1313 2700 1113 3408 
Q 913 4116 513 4856 
L 1441 4856 
Q 1916 4091 2145 3389 
Q 2375 2688 2375 2003 
Q 2375 1319 2147 623 
Q 1919 -72 1441 -844 
L 513 -844 
z
" transform="scale(0.015625)"/>
      <path id="DejaVuSans-Bold-66" d="M 2841 4863 
L 2841 4128 
L 2222 4128 
Q 1984 4128 1890 4042 
Q 1797 3956 1797 3744 
L 1797 3500 
L 2753 3500 
L 2753 2700 
L 1797 2700 
L 1797 0 
L 678 0 
L 678 2700 
L 122 2700 
L 122 3500 
L 678 3500 
L 678 3744 
Q 678 4316 997 4589 
Q 1316 4863 1984 4863 
L 2841 4863 
z
" transform="scale(0.015625)"/>
      <path id="DejaVuSans-Bold-55" d="M 588 4666 
L 1791 4666 
L 1791 1869 
Q 1791 1291 1980 1042 
Q 2169 794 2597 794 
Q 3028 794 3217 1042 
Q 3406 1291 3406 1869 
L 3406 4666 
L 4609 4666 
L 4609 1869 
Q 4609 878 4112 393 
Q 3616 -91 2597 -91 
Q 1581 -91 1084 393 
Q 588 878 588 1869 
L 588 4666 
z
" transform="scale(0.015625)"/>
     </defs>
     <use xlink:href="#DejaVuSans-Bold-4d"/>
     <use xlink:href="#DejaVuSans-Bold-6f" x="99.511719"/>
     <use xlink:href="#DejaVuSans-Bold-64" x="168.212891"/>
     <use xlink:href="#DejaVuSans-Bold-65" x="239.794922"/>
     <use xlink:href="#DejaVuSans-Bold-73" x="307.617188"/>
     <use xlink:href="#DejaVuSans-Bold-20" x="367.138672"/>
     <use xlink:href="#DejaVuSans-Bold-28" x="401.953125"/>
     <use xlink:href="#DejaVuSans-Bold-63" x="447.65625"/>
     <use xlink:href="#DejaVuSans-Bold-6f" x="506.933594"/>
     <use xlink:href="#DejaVuSans-Bold-6c" x="575.634766"/>
     <use xlink:href="#DejaVuSans-Bold-75" x="609.912109"/>
     <use xlink:href="#DejaVuSans-Bold-6d" x="681.103516"/>
     <use xlink:href="#DejaVuSans-Bold-6e" x="785.302734"/>
     <use xlink:href="#DejaVuSans-Bold-73" x="856.494141"/>
     <use xlink:href="#DejaVuSans-Bold-29" x="916.015625"/>
     <use xlink:href="#DejaVuSans-Bold-20" x="961.71875"/>
     <use xlink:href="#DejaVuSans-Bold-6f" x="996.533203"/>
     <use xlink:href="#DejaVuSans-Bold-66" x="1065.234375"/>
     <use xlink:href="#DejaVuSans-Bold-20" x="1108.740234"/>
     <use xlink:href="#DejaVuSans-Bold-55" x="1143.554688"/>
    </g>
   </g>
  </g>
 </g>
 <defs>
  <clipPath id="p9ab5baa183">
   <rect x="63" y="43.2" width="390.6" height="271.8"/>
  </clipPath>
 </defs>
</svg>
